<svg width="197" height="14" viewBox="0 0 197 14" fill="none" xmlns="http://www.w3.org/2000/svg">
<path d="M0.15625 5.76367C0.15625 4.95508 0.355469 4.21094 0.753906 3.53125C1.15625 2.84766 1.69727 2.30664 2.37695 1.9082C3.06055 1.50586 3.80664 1.30469 4.61523 1.30469C5.42383 1.30469 6.16797 1.50586 6.84766 1.9082C7.53125 2.30664 8.07227 2.84766 8.4707 3.53125C8.87305 4.21094 9.07422 4.95508 9.07422 5.76367C9.07422 6.57227 8.87305 7.31836 8.4707 8.00195C8.07227 8.68164 7.53125 9.22266 6.84766 9.625C6.16797 10.0234 5.42383 10.2227 4.61523 10.2227C3.80664 10.2227 3.06055 10.0234 2.37695 9.625C1.69727 9.22266 1.15625 8.68164 0.753906 8.00195C0.355469 7.31836 0.15625 6.57227 0.15625 5.76367ZM0.859375 4.72656C0.765625 5.05859 0.71875 5.40234 0.71875 5.75781C0.71875 6.46094 0.894531 7.11328 1.24609 7.71484C1.59766 8.3125 2.07227 8.78516 2.66992 9.13281C3.26758 9.48047 3.91406 9.6543 4.60938 9.6543C5.68359 9.6543 6.60156 9.27344 7.36328 8.51172C7.84375 8.03125 8.17773 7.45898 8.36523 6.79492C8.45898 6.46289 8.50586 6.11719 8.50586 5.75781C8.50586 5.0625 8.33203 4.41602 7.98438 3.81836C7.63672 3.2207 7.16211 2.74609 6.56055 2.39453C5.96289 2.04297 5.3125 1.86719 4.60938 1.86719C3.91406 1.86719 3.25977 2.04492 2.64648 2.40039C1.74414 2.92383 1.14844 3.69922 0.859375 4.72656ZM6.47266 8.23047C6.46484 8.25 6.4375 8.25391 6.39062 8.24219C6.34375 8.23047 6.28516 8.22461 6.21484 8.22461C6.14453 8.22461 6.04883 8.23828 5.92773 8.26562C5.80664 8.29297 5.61523 8.33594 5.35352 8.39453C5.0957 8.45312 4.82422 8.48242 4.53906 8.48242C4.25391 8.48242 3.92969 8.41797 3.56641 8.28906C3.20703 8.15625 2.89062 7.96875 2.61719 7.72656C2.02344 7.20703 1.72656 6.53125 1.72656 5.69922C1.72656 4.86328 2.01562 4.17383 2.59375 3.63086C3.17188 3.08398 3.88672 2.81055 4.73828 2.81055C5.07812 2.81055 5.4082 2.85156 5.72852 2.93359C6.04883 3.01172 6.25 3.06836 6.33203 3.10352C6.41406 3.13867 6.4707 3.15625 6.50195 3.15625L6.61914 3.12695H6.73633C6.76758 3.12695 6.7832 3.14844 6.7832 3.19141V4.38086C6.7832 4.4082 6.75977 4.42188 6.71289 4.42188C6.66992 4.42188 6.63672 4.4043 6.61328 4.36914C6.59375 4.33398 6.57031 4.28516 6.54297 4.22266C6.15234 3.45703 5.58594 3.07422 4.84375 3.07422C4.10156 3.07422 3.53516 3.30078 3.14453 3.75391C2.75391 4.20312 2.55859 4.79492 2.55859 5.5293C2.55859 6.26367 2.77539 6.89453 3.20898 7.42188C3.64648 7.94922 4.24414 8.21289 5.00195 8.21289C5.75977 8.21289 6.39062 7.79297 6.89453 6.95312C6.89844 6.9375 6.91406 6.92969 6.94141 6.92969H6.98828C7.01562 6.92969 7.0293 6.94531 7.0293 6.97656C7.0293 7.00391 7.02148 7.0332 7.00586 7.06445L6.47266 8.23047ZM20.7988 9.77734C20.7793 9.80859 20.7305 9.81641 20.6523 9.80078C20.5781 9.78125 20.4902 9.77148 20.3887 9.77148C20.2871 9.77148 20.1426 9.79297 19.9551 9.83594C19.7715 9.875 19.4805 9.9375 19.082 10.0234C18.6836 10.1133 18.3203 10.1582 17.9922 10.1582C17.25 10.1582 16.5293 9.98438 15.8301 9.63672C15.1348 9.28516 14.5781 8.78906 14.1602 8.14844C13.7422 7.50391 13.5332 6.75781 13.5332 5.91016C13.5332 5.0625 13.7422 4.29492 14.1602 3.60742C14.7695 2.59961 15.6875 1.94336 16.9141 1.63867C17.3047 1.54102 17.6953 1.49219 18.0859 1.49219C18.6211 1.49219 19.2559 1.58203 19.9902 1.76172C20.2129 1.81641 20.4004 1.87305 20.5527 1.93164C20.709 1.99023 20.8047 2.01953 20.8398 2.01953L21.0156 1.97266H21.1973C21.2441 1.97266 21.2676 2.00586 21.2676 2.07227V3.89453C21.2676 3.93359 21.2324 3.95312 21.1621 3.95312C21.0918 3.95312 21.0508 3.94531 21.0391 3.92969C21.0273 3.91016 21.0156 3.88867 21.0039 3.86523C20.9922 3.83789 20.9785 3.81055 20.9629 3.7832C20.9512 3.75586 20.9375 3.73047 20.9219 3.70703C20.9102 3.68359 20.9023 3.66602 20.8984 3.6543C20.3125 2.47852 19.4238 1.89062 18.2324 1.89062C17.1582 1.89062 16.3184 2.23242 15.7129 2.91602C15.1074 3.59961 14.8047 4.50586 14.8047 5.63477C14.8047 6.75977 15.1367 7.72656 15.8008 8.53516C16.4688 9.34375 17.375 9.74805 18.5195 9.74805C19.1445 9.74805 19.7129 9.5625 20.2246 9.19141C20.7402 8.82031 21.1445 8.36523 21.4375 7.82617C21.4453 7.80273 21.4688 7.79102 21.5078 7.79102H21.584C21.623 7.79102 21.6426 7.81445 21.6426 7.86133C21.6426 7.9082 21.6309 7.95312 21.6074 7.99609L20.7988 9.77734ZM22.5332 7.36914C22.5332 6.59961 22.8047 5.93945 23.3477 5.38867C23.8945 4.83398 24.5488 4.55664 25.3105 4.55664C26.0723 4.55664 26.7344 4.82617 27.2969 5.36523C27.8594 5.90039 28.1406 6.5625 28.1406 7.35156C28.1406 8.14062 27.873 8.80664 27.3379 9.34961C26.8066 9.88867 26.1387 10.1582 25.334 10.1582C24.5293 10.1582 23.8613 9.88477 23.3301 9.33789C22.7988 8.79102 22.5332 8.13477 22.5332 7.36914ZM23.9922 8.875C24.375 9.51953 24.8965 9.8418 25.5566 9.8418C26.0684 9.8418 26.459 9.63672 26.7285 9.22656C27.002 8.81641 27.1387 8.3125 27.1387 7.71484C27.1387 7.11719 26.9473 6.50391 26.5645 5.875C26.1855 5.24609 25.6738 4.93164 25.0293 4.93164C24.5566 4.93164 24.1836 5.13672 23.9102 5.54688C23.6406 5.95312 23.5059 6.4707 23.5059 7.09961C23.5059 7.72461 23.668 8.31641 23.9922 8.875ZM33.4082 9.38477C32.8691 9.90039 32.2637 10.1582 31.5918 10.1582C31.3496 10.1582 31.0195 10.1133 30.6016 10.0234C30.5352 10.0234 30.498 10.0469 30.4902 10.0938C30.4863 10.1406 30.4824 10.1895 30.4785 10.2402V12.7422C30.4785 13.0352 30.6484 13.2305 30.9883 13.3281C31.1367 13.3672 31.2754 13.3945 31.4043 13.4102C31.5332 13.4297 31.6152 13.4473 31.6504 13.4629C31.6895 13.4785 31.709 13.5078 31.709 13.5508C31.709 13.5977 31.6895 13.625 31.6504 13.6328H28.7148C28.6758 13.625 28.6562 13.5977 28.6562 13.5508C28.6562 13.4805 28.748 13.4336 28.9316 13.4102C29.3535 13.3477 29.5645 13.125 29.5645 12.7422V5.7168C29.5645 5.55273 29.4746 5.43945 29.2949 5.37695C29.2168 5.34961 29.1328 5.32812 29.043 5.3125C28.9531 5.29297 28.8809 5.27539 28.8262 5.25977C28.7754 5.24414 28.7422 5.23047 28.7266 5.21875C28.7148 5.20312 28.709 5.17383 28.709 5.13086C28.709 5.08398 28.7383 5.04492 28.7969 5.01367L30.291 4.29883C30.3223 4.2832 30.3535 4.27539 30.3848 4.27539C30.4473 4.27539 30.4785 4.32227 30.4785 4.41602V5.16016C30.4785 5.20312 30.5 5.22461 30.543 5.22461C30.5898 5.22461 30.6992 5.16797 30.8711 5.05469C31.3672 4.73438 31.8828 4.57422 32.418 4.57422C32.793 4.57422 33.1367 4.72656 33.4492 5.03125C33.8594 5.42969 34.1328 5.98438 34.2695 6.69531C34.3086 6.89844 34.3281 7.11523 34.3281 7.3457C34.3281 7.57227 34.291 7.8125 34.2168 8.06641C34.0684 8.57031 33.7988 9.00977 33.4082 9.38477ZM31.7324 5.18359C31.2012 5.18359 30.7832 5.33594 30.4785 5.64062V8.93359C30.4785 9.12891 30.5117 9.25586 30.5781 9.31445C30.75 9.46289 31.0137 9.57812 31.3691 9.66016C32.0723 9.82031 32.6191 9.65234 33.0098 9.15625C33.2871 8.80078 33.4258 8.37109 33.4258 7.86719C33.4258 6.88672 33.2051 6.15234 32.7637 5.66406C32.498 5.36719 32.1543 5.20703 31.7324 5.18359ZM41.1016 4.72656C41.1445 4.73828 41.166 4.76562 41.166 4.80859C41.166 4.85156 41.1621 4.88086 41.1543 4.89648C41.1465 4.9082 41.127 4.91992 41.0957 4.93164C41.0684 4.93945 41.0273 4.94727 40.9727 4.95508C40.9219 4.96289 40.8398 4.97852 40.7266 5.00195C40.6133 5.02148 40.5117 5.09961 40.4219 5.23633C40.332 5.37305 40.2363 5.5625 40.1348 5.80469L37.3809 12.6309L37 13.4395C36.9023 13.6465 36.6973 13.75 36.3848 13.75C36.248 13.75 36.1387 13.7051 36.0566 13.6152C35.9746 13.5254 35.9336 13.418 35.9336 13.293C35.9336 13.1719 35.9629 13.082 36.0215 13.0234C36.084 12.9688 36.1562 12.9238 36.2383 12.8887C36.3203 12.8535 36.4043 12.8203 36.4902 12.7891C36.5801 12.7617 36.6797 12.6953 36.7891 12.5898C36.8984 12.4883 36.9629 12.4121 36.9824 12.3613C37.6387 10.8926 37.9668 10.125 37.9668 10.0586C37.9668 9.99219 37.9277 9.91016 37.8496 9.8125L35.916 5.77539C35.7715 5.38086 35.5234 5.12695 35.1719 5.01367C35.1445 5.00586 35.1113 5 35.0723 4.99609C34.9082 4.98047 34.8262 4.93164 34.8262 4.84961C34.8262 4.76758 34.873 4.72656 34.9668 4.72656H37.5742C37.6055 4.72656 37.6211 4.75781 37.6211 4.82031C37.6211 4.87891 37.5938 4.91992 37.5391 4.94336C37.4844 4.96289 37.3633 4.97266 37.1758 4.97266C36.875 4.97266 36.7246 5.08984 36.7246 5.32422L36.7773 5.46484L38.2949 8.7168C38.373 8.91602 38.4512 8.91016 38.5293 8.69922C38.5371 8.67969 38.5859 8.55273 38.6758 8.31836C39.207 6.9707 39.5039 6.19141 39.5664 5.98047C39.6328 5.76953 39.666 5.61133 39.666 5.50586C39.666 5.40039 39.6094 5.28906 39.4961 5.17188C39.3867 5.05469 39.2344 4.99609 39.0391 4.99609C38.8477 4.99609 38.752 4.93945 38.752 4.82617C38.752 4.75977 38.7949 4.72656 38.8809 4.72656H41.1016ZM45.2852 5.79883C45.2383 5.79102 45.1699 5.76562 45.0801 5.72266C44.7559 5.57422 44.502 5.5 44.3184 5.5C44.1348 5.5 43.9414 5.61523 43.7383 5.8457C43.5391 6.07227 43.4395 6.27734 43.4395 6.46094V9.10938C43.4395 9.40234 43.6094 9.59766 43.9492 9.69531C44.0977 9.73438 44.2363 9.76367 44.3652 9.7832C44.4941 9.79883 44.5762 9.81445 44.6113 9.83008C44.6504 9.8457 44.6699 9.87695 44.6699 9.92383C44.6699 9.9668 44.6504 9.99219 44.6113 10H41.6758C41.6367 9.99219 41.6172 9.96484 41.6172 9.91797C41.6172 9.84766 41.709 9.80078 41.8926 9.77734C42.3145 9.71484 42.5254 9.49219 42.5254 9.10938V6.00977C42.5254 5.8457 42.4355 5.73242 42.2559 5.66992C42.1777 5.64258 42.0938 5.62109 42.0039 5.60547C41.9141 5.58594 41.8418 5.56836 41.7871 5.55273C41.7363 5.53711 41.7031 5.52344 41.6875 5.51172C41.6758 5.49609 41.6699 5.4668 41.6699 5.42383C41.6699 5.37695 41.6992 5.33789 41.7578 5.30664L43.252 4.60352C43.2988 4.58008 43.3281 4.56836 43.3398 4.56836C43.4062 4.56836 43.4395 4.61523 43.4395 4.70898V5.6582C43.4395 5.70508 43.4512 5.72852 43.4746 5.72852C43.5059 5.72852 43.5859 5.63672 43.7148 5.45312C44.0859 4.93359 44.3926 4.67383 44.6348 4.67383C44.7715 4.67383 44.9805 4.72852 45.2617 4.83789C45.5469 4.94727 45.6895 5.03906 45.6895 5.11328C45.6895 5.20312 45.6445 5.33984 45.5547 5.52344C45.4648 5.70703 45.375 5.79883 45.2852 5.79883ZM46.1055 10C46.0664 9.99219 46.0469 9.96484 46.0469 9.91797C46.0469 9.84766 46.1387 9.80078 46.3223 9.77734C46.7441 9.71484 46.9551 9.49219 46.9551 9.10938V6.00977C46.9551 5.8457 46.8652 5.73242 46.6855 5.66992C46.6074 5.64258 46.5234 5.62109 46.4336 5.60547C46.3438 5.58594 46.2715 5.56836 46.2168 5.55273C46.166 5.53711 46.1328 5.52344 46.1172 5.51172C46.1055 5.49609 46.0996 5.4668 46.0996 5.42383C46.0996 5.37695 46.1289 5.33789 46.1875 5.30664L47.6816 4.60352C47.7285 4.58008 47.7578 4.56836 47.7695 4.56836C47.8359 4.56836 47.8691 4.61523 47.8691 4.70898V9.10938C47.8691 9.49219 48.0801 9.71484 48.502 9.77734C48.6855 9.80078 48.7773 9.8418 48.7773 9.90039C48.7773 9.95898 48.7578 9.99219 48.7188 10H46.1055ZM47.3242 2.92188C47.1641 2.92188 47.0215 2.87109 46.8965 2.76953C46.7754 2.66797 46.7148 2.52734 46.7148 2.34766C46.7148 2.16406 46.7734 2.01953 46.8906 1.91406C47.0078 1.80859 47.1465 1.75586 47.3066 1.75586C47.4707 1.75586 47.6074 1.81836 47.7168 1.94336C47.8301 2.06836 47.8867 2.20312 47.8867 2.34766C47.8867 2.49219 47.834 2.625 47.7285 2.74609C47.623 2.86328 47.4883 2.92188 47.3242 2.92188ZM53.8691 5.13086C53.8691 5.13086 54.3926 5.10742 55.4395 5.06055C55.5293 5.06055 55.5879 5.07031 55.6152 5.08984C55.6426 5.10938 55.6719 5.17773 55.7031 5.29492C55.7344 5.4082 55.75 5.51562 55.75 5.61719C55.75 5.71875 55.7402 5.77734 55.7207 5.79297C55.7012 5.80859 55.6621 5.81641 55.6035 5.81641H54.3027C54.3262 5.85938 54.3516 5.9043 54.3789 5.95117C54.4062 5.99805 54.4414 6.07617 54.4844 6.18555C54.5273 6.29492 54.5488 6.46484 54.5488 6.69531C54.5488 6.92188 54.4922 7.16016 54.3789 7.41016C54.2695 7.65625 54.1074 7.875 53.8926 8.06641C53.416 8.49609 52.7988 8.71094 52.041 8.71094C51.8418 8.71094 51.623 8.67383 51.3848 8.59961C51.3262 8.66211 51.248 8.7207 51.1504 8.77539C51.0527 8.82617 50.957 8.87891 50.8633 8.93359C50.6289 9.06641 50.5117 9.19922 50.5117 9.33203C50.5117 9.66406 51.0625 9.83398 52.1641 9.8418C53.2656 9.84961 53.9883 9.88672 54.332 9.95312C54.6797 10.0156 54.9492 10.1426 55.1406 10.334C55.4414 10.6348 55.5918 10.9785 55.5918 11.3652C55.5918 11.6973 55.4492 12.0391 55.1641 12.3906C54.668 13.0117 53.9102 13.4258 52.8906 13.6328C52.5273 13.707 52.1426 13.7441 51.7363 13.7441C50.998 13.7441 50.4375 13.6094 50.0547 13.3398C49.6719 13.0742 49.4805 12.752 49.4805 12.373C49.4805 12.166 49.5293 11.9941 49.627 11.8574C49.7246 11.7246 49.8477 11.5977 49.9961 11.4766C50.1484 11.3594 50.3145 11.2344 50.4941 11.1016C50.6738 10.9727 50.8457 10.8066 51.0098 10.6035C50.6348 10.5723 50.3125 10.4531 50.043 10.2461C49.7773 10.0391 49.6445 9.83594 49.6445 9.63672C49.6445 9.4375 49.6973 9.29102 49.8027 9.19727C49.9082 9.09961 50.0371 9.01758 50.1895 8.95117C50.3418 8.88086 50.502 8.81641 50.6699 8.75781C50.8379 8.69922 50.9844 8.62305 51.1094 8.5293C50.6719 8.35742 50.334 8.12109 50.0957 7.82031C49.8574 7.51562 49.7383 7.18359 49.7383 6.82422C49.7383 6.15625 49.9805 5.61133 50.4648 5.18945C50.9531 4.76758 51.541 4.55664 52.2285 4.55664C52.916 4.55664 53.4629 4.74805 53.8691 5.13086ZM50.6816 11.2422C50.5918 11.332 50.5176 11.4277 50.459 11.5293C50.4004 11.6309 50.3711 11.7578 50.3711 11.9102C50.3711 12.0664 50.4258 12.2285 50.5352 12.3965C50.6484 12.5684 50.8008 12.7227 50.9922 12.8594C51.4141 13.1719 51.9219 13.3281 52.5156 13.3281C53.1094 13.3281 53.6465 13.1543 54.127 12.8066C54.6113 12.4629 54.8535 12.084 54.8535 11.6699C54.8535 11.2598 54.6543 10.9844 54.2559 10.8438C54.0684 10.7812 53.5859 10.7422 52.8086 10.7266C52.0312 10.7109 51.5273 10.6895 51.2969 10.6621C51.1953 10.7793 51.0898 10.8828 50.9805 10.9727C50.875 11.0625 50.7754 11.1523 50.6816 11.2422ZM53.5879 6.68945C53.5879 6.13867 53.4492 5.69141 53.1719 5.34766C52.8984 5 52.5352 4.82617 52.082 4.82617C51.4961 4.82617 51.082 5.10156 50.8398 5.65234C50.7461 5.86328 50.6992 6.10547 50.6992 6.37891C50.6992 6.9375 50.8145 7.40234 51.0449 7.77344C51.3262 8.21875 51.6953 8.44141 52.1523 8.44141C52.6094 8.44141 52.9629 8.28711 53.2129 7.97852C53.4629 7.66992 53.5879 7.24023 53.5879 6.68945ZM57.7949 5.46484C57.7949 5.55859 57.8086 5.60547 57.8359 5.60547C57.8633 5.60547 57.8828 5.59961 57.8945 5.58789C57.9062 5.57227 57.9883 5.48047 58.1406 5.3125C58.582 4.82031 59.0293 4.57422 59.4824 4.57422C60.0762 4.57422 60.5117 4.70703 60.7891 4.97266C61.1289 5.30859 61.2988 5.87305 61.2988 6.66602V9.10938C61.2988 9.49219 61.5098 9.71484 61.9316 9.77734C62.1152 9.80078 62.207 9.8418 62.207 9.90039C62.207 9.95898 62.1875 9.99219 62.1484 10H59.5352C59.4961 9.99219 59.4766 9.96484 59.4766 9.91797C59.4766 9.84766 59.5684 9.80078 59.752 9.77734C60.1738 9.71484 60.3848 9.49219 60.3848 9.10938V6.72461C60.3848 6.15039 60.3438 5.77734 60.2617 5.60547C60.1055 5.26172 59.7793 5.08984 59.2832 5.08984C58.9785 5.08984 58.6543 5.2207 58.3105 5.48242C57.9668 5.74023 57.7949 6.02539 57.7949 6.33789V9.10938C57.7949 9.49219 58.0059 9.71484 58.4277 9.77734C58.6113 9.80078 58.7031 9.8418 58.7031 9.90039C58.7031 9.95898 58.6836 9.99219 58.6445 10H56.0312C55.9922 9.99219 55.9727 9.96484 55.9727 9.91797C55.9727 9.84766 56.0645 9.80078 56.248 9.77734C56.6699 9.71484 56.8809 9.49219 56.8809 9.10938V1.80273C56.8809 1.63867 56.791 1.52539 56.6113 1.46289C56.5332 1.43555 56.4492 1.41406 56.3594 1.39844C56.2695 1.37891 56.1973 1.36133 56.1426 1.3457C56.0918 1.33008 56.0586 1.31641 56.043 1.30469C56.0312 1.28906 56.0254 1.25977 56.0254 1.2168C56.0254 1.16992 56.0547 1.13086 56.1133 1.09961L57.6074 0.396484C57.6543 0.373047 57.6836 0.361328 57.6953 0.361328C57.7617 0.361328 57.7949 0.408203 57.7949 0.501953V5.46484ZM64.2168 5.49414C64.1934 5.49414 64.1816 5.51172 64.1816 5.54688V8.78125C64.1816 9.01562 64.2324 9.19922 64.334 9.33203C64.4395 9.46484 64.5723 9.53125 64.7324 9.53125C64.8926 9.53125 65.0312 9.50586 65.1484 9.45508C65.2695 9.40039 65.373 9.3418 65.459 9.2793C65.5488 9.2168 65.6289 9.16016 65.6992 9.10938C65.7695 9.05469 65.832 9.02734 65.8867 9.02734C65.9414 9.02734 65.9688 9.04102 65.9688 9.06836C65.9688 9.16211 65.959 9.22266 65.9395 9.25C65.4707 9.85547 65.0176 10.1582 64.5801 10.1582C64.1465 10.1582 63.8184 10.0215 63.5957 9.74805C63.377 9.4707 63.2676 9.14062 63.2676 8.75781V5.49414H62.8281C62.7188 5.49414 62.6602 5.45898 62.6523 5.38867C62.6484 5.31836 62.6602 5.27344 62.6875 5.25391C62.8945 5.12109 63.1797 4.88281 63.543 4.53906C63.582 4.49609 63.6348 4.43164 63.7012 4.3457C63.7676 4.25977 63.8633 4.14258 63.9883 3.99414C64.1172 3.8457 64.2148 3.77148 64.2812 3.77148C64.3477 3.77148 64.3809 3.79883 64.3809 3.85352C64.3809 3.86133 64.3145 4.11719 64.1816 4.62109C64.1816 4.69141 64.2129 4.72852 64.2754 4.73242H65.7695C65.9414 4.73242 66.0273 4.97461 66.0273 5.45898C66.0273 5.48242 66.0117 5.49414 65.9805 5.49414H64.2168ZM69.6543 6.61328H75.8008V7.46289H69.6543V6.61328ZM82.457 1.97266C81.9883 1.97266 81.7539 2.15234 81.7539 2.51172C81.7539 2.57812 81.7656 2.64844 81.7891 2.72266C81.8164 2.79688 81.8398 2.875 81.8594 2.95703L84.1035 8.35938C84.123 8.39844 84.1543 8.41797 84.1973 8.41797C84.2402 8.41797 84.2754 8.39648 84.3027 8.35352L85.5977 5.30664L84.4551 2.54688C84.3848 2.37109 84.0918 2.20312 83.5762 2.04297C83.4238 1.99609 83.3242 1.97266 83.2773 1.97266C83.2344 1.97266 83.2129 1.95703 83.2129 1.92578V1.78516C83.2129 1.75391 83.2285 1.73828 83.2598 1.73828H88.627C88.6582 1.73828 88.6738 1.75391 88.6738 1.78516V1.92578C88.6738 1.95703 88.6582 1.97266 88.627 1.97266H88.4102C88.0352 1.97266 87.75 2.15625 87.5547 2.52344C87.4883 2.64844 87.4199 2.79492 87.3496 2.96289L86.5879 4.75L88.0879 8.35938C88.1074 8.39844 88.1387 8.41797 88.1816 8.41797C88.2246 8.41797 88.2598 8.39648 88.2871 8.35352L90.7656 2.52344C90.8125 2.41406 90.8359 2.31641 90.8359 2.23047C90.8359 2.05859 90.6113 1.97266 90.1621 1.97266H89.7988C89.7676 1.97266 89.752 1.95703 89.752 1.92578V1.78516C89.752 1.75391 89.7676 1.73828 89.7988 1.73828H92.4062C92.4375 1.73828 92.4531 1.75391 92.4531 1.78516V1.92578C92.4531 1.95703 92.4375 1.97266 92.4062 1.97266H92.1309C91.959 1.97266 91.8281 2.0332 91.7383 2.1543C91.6523 2.27148 91.5293 2.51367 91.3691 2.88086L88.3574 9.95312C88.3145 10.0469 88.2695 10.1035 88.2227 10.123C88.1758 10.1465 88.1074 10.1582 88.0176 10.1582H87.7422C87.6484 10.1582 87.5859 10.1152 87.5547 10.0293L85.9727 6.19727L84.373 9.95312C84.3301 10.0469 84.2852 10.1035 84.2383 10.123C84.1914 10.1465 84.123 10.1582 84.0332 10.1582H83.7578C83.6641 10.1582 83.6035 10.1133 83.5762 10.0234L80.4707 2.54688C80.4082 2.39453 80.2148 2.26172 79.8906 2.14844C79.5664 2.03125 79.3652 1.97266 79.2871 1.97266C79.2129 1.97266 79.1758 1.95703 79.1758 1.92578V1.78516C79.1758 1.75391 79.1914 1.73828 79.2227 1.73828H82.5625C82.5938 1.73828 82.6094 1.75391 82.6094 1.78516V1.92578C82.6094 1.95703 82.5938 1.97266 82.5625 1.97266H82.457ZM86.8516 2.24805C86.8516 2.08398 86.6836 1.99414 86.3477 1.97852C86.0078 1.99805 85.8125 2.11719 85.7617 2.33594C85.7461 2.39062 85.7383 2.45117 85.7383 2.51758C85.7383 2.58008 85.75 2.64844 85.7734 2.72266C85.8008 2.79688 85.8242 2.875 85.8438 2.95703L86.2129 3.85352L86.7812 2.52344C86.8281 2.41406 86.8516 2.32227 86.8516 2.24805ZM99.9883 9.49609C99.6484 9.70312 99.2773 9.86523 98.875 9.98242C98.4727 10.0996 98.1152 10.1582 97.8027 10.1582C97.1621 10.1582 96.5508 10.0547 95.9688 9.84766C95.1719 9.55859 94.5312 9.13086 94.0469 8.56445C93.4297 7.8418 93.1211 6.92578 93.1211 5.81641C93.1211 5.01562 93.3262 4.28711 93.7363 3.63086C94.1465 2.9707 94.7129 2.44922 95.4355 2.06641C96.1621 1.68359 96.9414 1.49219 97.7734 1.49219C98.6094 1.49219 99.3574 1.67773 100.018 2.04883C100.678 2.41992 101.207 2.92969 101.605 3.57812C102.004 4.22656 102.203 4.92969 102.203 5.6875C102.203 6.44141 102.006 7.16016 101.611 7.84375C101.217 8.52344 100.676 9.07422 99.9883 9.49609ZM94.3516 5.62891C94.3516 6.27734 94.4941 6.92188 94.7793 7.5625C95.0684 8.19922 95.4805 8.71875 96.0156 9.12109C96.5508 9.52344 97.1699 9.72461 97.873 9.72461C98.873 9.72461 99.6523 9.3418 100.211 8.57617C100.715 7.88477 100.967 7.00195 100.967 5.92773C100.967 4.85352 100.658 3.92773 100.041 3.15039C99.7402 2.77148 99.3711 2.46875 98.9336 2.24219C98.5 2.01172 98.0605 1.89648 97.6152 1.89648C97.1738 1.89648 96.8105 1.94531 96.5254 2.04297C96.2441 2.14062 95.9883 2.27539 95.7578 2.44727C95.5273 2.61523 95.3242 2.81641 95.1484 3.05078C94.9727 3.28516 94.8262 3.53906 94.709 3.8125C94.4707 4.375 94.3516 4.98047 94.3516 5.62891ZM110.359 9.49609C110.02 9.70312 109.648 9.86523 109.246 9.98242C108.844 10.0996 108.486 10.1582 108.174 10.1582C107.533 10.1582 106.922 10.0547 106.34 9.84766C105.543 9.55859 104.902 9.13086 104.418 8.56445C103.801 7.8418 103.492 6.92578 103.492 5.81641C103.492 5.01562 103.697 4.28711 104.107 3.63086C104.518 2.9707 105.084 2.44922 105.807 2.06641C106.533 1.68359 107.312 1.49219 108.145 1.49219C108.98 1.49219 109.729 1.67773 110.389 2.04883C111.049 2.41992 111.578 2.92969 111.977 3.57812C112.375 4.22656 112.574 4.92969 112.574 5.6875C112.574 6.44141 112.377 7.16016 111.982 7.84375C111.588 8.52344 111.047 9.07422 110.359 9.49609ZM104.723 5.62891C104.723 6.27734 104.865 6.92188 105.15 7.5625C105.439 8.19922 105.852 8.71875 106.387 9.12109C106.922 9.52344 107.541 9.72461 108.244 9.72461C109.244 9.72461 110.023 9.3418 110.582 8.57617C111.086 7.88477 111.338 7.00195 111.338 5.92773C111.338 4.85352 111.029 3.92773 110.412 3.15039C110.111 2.77148 109.742 2.46875 109.305 2.24219C108.871 2.01172 108.432 1.89648 107.986 1.89648C107.545 1.89648 107.182 1.94531 106.896 2.04297C106.615 2.14062 106.359 2.27539 106.129 2.44727C105.898 2.61523 105.695 2.81641 105.52 3.05078C105.344 3.28516 105.197 3.53906 105.08 3.8125C104.842 4.375 104.723 4.98047 104.723 5.62891ZM113.482 1.76758C113.482 1.73633 113.498 1.7207 113.529 1.7207H113.658L115.539 1.67969C115.766 1.67188 116.012 1.66797 116.277 1.66797H117.01C117.689 1.66797 118.199 1.69336 118.539 1.74414C118.883 1.79492 119.219 1.85547 119.547 1.92578C119.879 1.99219 120.23 2.14648 120.602 2.38867C120.977 2.63086 121.301 2.92383 121.574 3.26758C122.152 4.00195 122.441 4.79492 122.441 5.64648C122.441 6.49805 122.219 7.26172 121.773 7.9375C121.133 8.91797 120.205 9.55859 118.99 9.85938C118.604 9.95312 118.207 10 117.801 10H113.529C113.498 10 113.482 9.98438 113.482 9.95312V9.78906C113.482 9.75781 113.498 9.74219 113.529 9.74219H113.658C114.369 9.74219 114.725 9.51562 114.725 9.0625V2.64062C114.725 2.42188 114.641 2.25781 114.473 2.14844C114.305 2.03516 114.115 1.97852 113.904 1.97852H113.529C113.498 1.97852 113.482 1.96289 113.482 1.93164V1.76758ZM116.014 1.94336C115.916 1.94336 115.867 1.99609 115.867 2.10156V9.26758C115.867 9.55664 116.139 9.70703 116.682 9.71875C116.842 9.72266 117.01 9.72461 117.186 9.72461C118.432 9.72461 119.41 9.375 120.121 8.67578C120.836 7.97656 121.193 7.04688 121.193 5.88672C121.193 4.72266 120.863 3.77539 120.203 3.04492C119.547 2.31055 118.682 1.94336 117.607 1.94336H116.014ZM123.01 9.95312V9.78906C123.01 9.75781 123.025 9.74219 123.057 9.74219H123.186C123.35 9.73047 123.518 9.72461 123.689 9.72461C123.861 9.7207 124.018 9.69922 124.158 9.66016C124.479 9.56641 124.639 9.33203 124.639 8.95703V2.78125C124.639 2.39453 124.41 2.14844 123.953 2.04297C123.824 2.01562 123.693 1.99219 123.561 1.97266H123.438C123.406 1.97266 123.391 1.95703 123.391 1.92578V1.78516C123.391 1.75391 123.406 1.73828 123.438 1.73828H129.01C129.08 1.73828 129.131 1.75195 129.162 1.7793C129.193 1.80273 129.213 1.85742 129.221 1.94336L129.326 3.64258C129.326 3.68164 129.297 3.70117 129.238 3.70117C129.18 3.70117 129.137 3.68359 129.109 3.64844C129.086 3.60938 129.055 3.4668 129.016 3.2207C128.98 2.97461 128.914 2.76953 128.816 2.60547C128.719 2.44141 128.547 2.33789 128.301 2.29492H125.857C125.807 2.29492 125.781 2.32031 125.781 2.37109V5.40039C125.781 5.43945 125.801 5.45898 125.84 5.45898H127.867C128.391 5.45898 128.652 5.1543 128.652 4.54492C128.652 4.51367 128.668 4.49805 128.699 4.49805H128.84C128.871 4.49805 128.887 4.51367 128.887 4.54492V7.05273C128.887 7.08398 128.871 7.09961 128.84 7.09961H128.699C128.668 7.09961 128.652 7.08398 128.652 7.05273C128.652 6.47461 128.484 6.14062 128.148 6.05078C128.055 6.02734 127.955 6.01562 127.85 6.01562H125.84C125.801 6.01562 125.781 6.03516 125.781 6.07422V8.92773C125.781 9.2207 125.916 9.38672 126.186 9.42578C126.264 9.4375 126.346 9.44336 126.432 9.44336H128.383C128.785 9.44336 129.098 9.26562 129.32 8.91016C129.48 8.65625 129.578 8.36523 129.613 8.03711C129.625 7.92773 129.684 7.87305 129.789 7.87305C129.836 7.87305 129.859 7.89844 129.859 7.94922L129.666 9.91797C129.643 9.97266 129.615 10 129.584 10H123.057C123.025 10 123.01 9.98438 123.01 9.95312ZM130.773 10C130.742 10 130.727 9.98438 130.727 9.95312V9.8125C130.727 9.78125 130.746 9.76562 130.785 9.76562H130.92C131.135 9.76562 131.281 9.74609 131.359 9.70703C131.648 9.56641 131.793 9.17969 131.793 8.54688V2.45898C131.793 2.19727 131.539 2.04102 131.031 1.99023C130.918 1.97852 130.838 1.97266 130.791 1.97266C130.748 1.97266 130.727 1.95703 130.727 1.92578V1.78516C130.727 1.75391 130.742 1.73828 130.773 1.73828H132.918L138.479 7.88477C138.498 7.9043 138.512 7.91992 138.52 7.93164C138.527 7.93945 138.539 7.94336 138.555 7.94336C138.574 7.94336 138.584 7.92578 138.584 7.89062V3.85352C138.584 3.07617 138.52 2.56836 138.391 2.33008C138.262 2.0918 138.002 1.97266 137.611 1.97266H137.312C137.281 1.97266 137.266 1.95703 137.266 1.92578V1.78516C137.266 1.75391 137.281 1.73828 137.312 1.73828H140.359C140.391 1.73828 140.406 1.75391 140.406 1.78516V1.92578C140.406 1.95703 140.348 1.97266 140.23 1.97266C140.117 1.97266 139.928 2.03906 139.662 2.17188C139.4 2.30469 139.27 2.46875 139.27 2.66406V9.83008C139.27 9.91602 139.258 9.97656 139.234 10.0117C139.211 10.0508 139.154 10.0703 139.064 10.0703C138.979 10.0703 138.914 10.0527 138.871 10.0176C138.828 9.98242 138.777 9.93164 138.719 9.86523L132.678 3.16797C132.639 3.12891 132.604 3.10938 132.572 3.10938C132.553 3.10938 132.543 3.12891 132.543 3.16797V9.01562C132.543 9.37109 132.824 9.60547 133.387 9.71875C133.543 9.75 133.662 9.76562 133.744 9.76562C133.826 9.76562 133.867 9.78125 133.867 9.8125V9.95312C133.867 9.98438 133.852 10 133.82 10H130.773ZM140.881 1.76758C140.881 1.73633 140.896 1.7207 140.928 1.7207H141.057L142.938 1.67969C143.164 1.67188 143.41 1.66797 143.676 1.66797H144.408C145.088 1.66797 145.598 1.69336 145.938 1.74414C146.281 1.79492 146.617 1.85547 146.945 1.92578C147.277 1.99219 147.629 2.14648 148 2.38867C148.375 2.63086 148.699 2.92383 148.973 3.26758C149.551 4.00195 149.84 4.79492 149.84 5.64648C149.84 6.49805 149.617 7.26172 149.172 7.9375C148.531 8.91797 147.604 9.55859 146.389 9.85938C146.002 9.95312 145.605 10 145.199 10H140.928C140.896 10 140.881 9.98438 140.881 9.95312V9.78906C140.881 9.75781 140.896 9.74219 140.928 9.74219H141.057C141.768 9.74219 142.123 9.51562 142.123 9.0625V2.64062C142.123 2.42188 142.039 2.25781 141.871 2.14844C141.703 2.03516 141.514 1.97852 141.303 1.97852H140.928C140.896 1.97852 140.881 1.96289 140.881 1.93164V1.76758ZM143.412 1.94336C143.314 1.94336 143.266 1.99609 143.266 2.10156V9.26758C143.266 9.55664 143.537 9.70703 144.08 9.71875C144.24 9.72266 144.408 9.72461 144.584 9.72461C145.83 9.72461 146.809 9.375 147.52 8.67578C148.234 7.97656 148.592 7.04688 148.592 5.88672C148.592 4.72266 148.262 3.77539 147.602 3.04492C146.945 2.31055 146.08 1.94336 145.006 1.94336H143.412ZM157.879 9.49609C157.539 9.70312 157.168 9.86523 156.766 9.98242C156.363 10.0996 156.006 10.1582 155.693 10.1582C155.053 10.1582 154.441 10.0547 153.859 9.84766C153.062 9.55859 152.422 9.13086 151.938 8.56445C151.32 7.8418 151.012 6.92578 151.012 5.81641C151.012 5.01562 151.217 4.28711 151.627 3.63086C152.037 2.9707 152.604 2.44922 153.326 2.06641C154.053 1.68359 154.832 1.49219 155.664 1.49219C156.5 1.49219 157.248 1.67773 157.908 2.04883C158.568 2.41992 159.098 2.92969 159.496 3.57812C159.895 4.22656 160.094 4.92969 160.094 5.6875C160.094 6.44141 159.896 7.16016 159.502 7.84375C159.107 8.52344 158.566 9.07422 157.879 9.49609ZM152.242 5.62891C152.242 6.27734 152.385 6.92188 152.67 7.5625C152.959 8.19922 153.371 8.71875 153.906 9.12109C154.441 9.52344 155.061 9.72461 155.764 9.72461C156.764 9.72461 157.543 9.3418 158.102 8.57617C158.605 7.88477 158.857 7.00195 158.857 5.92773C158.857 4.85352 158.549 3.92773 157.932 3.15039C157.631 2.77148 157.262 2.46875 156.824 2.24219C156.391 2.01172 155.951 1.89648 155.506 1.89648C155.064 1.89648 154.701 1.94531 154.416 2.04297C154.135 2.14062 153.879 2.27539 153.648 2.44727C153.418 2.61523 153.215 2.81641 153.039 3.05078C152.863 3.28516 152.717 3.53906 152.6 3.8125C152.361 4.375 152.242 4.98047 152.242 5.62891ZM163.076 9.8125C163.076 9.78125 163.094 9.76562 163.129 9.76562H163.293C163.676 9.76562 163.982 9.68359 164.213 9.51953C164.447 9.35547 164.564 9.16406 164.564 8.94531V2.45898C164.564 2.37695 164.547 2.33203 164.512 2.32422C164.48 2.3125 164.441 2.30273 164.395 2.29492H162.145C161.781 2.37305 161.543 2.65234 161.43 3.13281C161.367 3.39062 161.33 3.55664 161.318 3.63086C161.307 3.70117 161.285 3.73633 161.254 3.73633H161.148C161.125 3.73633 161.113 3.72852 161.113 3.71289V3.51953L161.33 1.69141C161.354 1.57031 161.393 1.50977 161.447 1.50977C161.502 1.50977 161.561 1.54883 161.623 1.62695C161.686 1.70117 161.805 1.73828 161.98 1.73828H168.297C168.465 1.73828 168.566 1.71875 168.602 1.67969C168.637 1.64062 168.67 1.60352 168.701 1.56836C168.732 1.5293 168.771 1.50977 168.818 1.50977C168.869 1.50977 168.9 1.5293 168.912 1.56836C168.928 1.60742 168.939 1.64844 168.947 1.69141L169.164 3.51953V3.71289C169.164 3.72852 169.152 3.73633 169.129 3.73633H169.023C168.992 3.73633 168.971 3.70703 168.959 3.64844C168.896 3.25781 168.807 2.94922 168.689 2.72266C168.572 2.49219 168.387 2.34961 168.133 2.29492H165.877C165.83 2.30273 165.789 2.3125 165.754 2.32422C165.723 2.33203 165.707 2.37695 165.707 2.45898V8.94531C165.707 9.16406 165.822 9.35547 166.053 9.51953C166.287 9.68359 166.596 9.76562 166.979 9.76562H167.148C167.18 9.76562 167.195 9.78125 167.195 9.8125V9.95312C167.195 9.98438 167.18 10 167.148 10H163.123C163.092 10 163.076 9.98438 163.076 9.95312V9.8125ZM173.518 4.35742L173.377 4.375C173.338 4.375 173.318 4.36328 173.318 4.33984C173.318 4.23047 173.383 3.99023 173.512 3.61914C173.641 3.24414 173.789 2.96875 173.957 2.79297C174.523 2.21094 175.16 1.91992 175.867 1.91992C176.574 1.91992 177.143 2.14258 177.572 2.58789C178.002 3.0293 178.217 3.58594 178.217 4.25781C178.217 4.92578 177.783 5.66406 176.916 6.47266C176.643 6.73047 176.414 6.9375 176.23 7.09375C175.996 7.29297 175.582 7.68164 174.988 8.25977C174.398 8.83398 174.104 9.15039 174.104 9.20898H177.402C177.688 9.20898 177.889 9.12891 178.006 8.96875C178.076 8.875 178.166 8.62695 178.275 8.22461H178.498L178.246 9.80664C178.227 9.89648 178.182 9.96094 178.111 10H173.236C173.217 10 173.207 9.94922 173.207 9.84766C173.207 9.75 173.297 9.59766 173.477 9.39062C173.66 9.18359 173.893 8.93945 174.174 8.6582C174.459 8.37305 174.846 7.98438 175.334 7.49219C176.576 6.23047 177.197 5.2207 177.197 4.46289C177.197 3.99805 177.027 3.57812 176.688 3.20312C176.352 2.82422 175.959 2.63477 175.51 2.63477C175.064 2.63477 174.666 2.78516 174.314 3.08594C173.971 3.38672 173.738 3.77539 173.617 4.25195C173.602 4.32227 173.568 4.35742 173.518 4.35742ZM179.359 5.93945C179.359 4.97461 179.629 4.06445 180.168 3.20898C180.707 2.34961 181.307 1.91992 181.967 1.91992C182.486 1.91992 182.951 2.11914 183.361 2.51758C183.775 2.91211 184.088 3.42969 184.299 4.07031C184.51 4.71094 184.615 5.38086 184.615 6.08008C184.615 7.14648 184.375 8.08008 183.895 8.88086C183.578 9.41211 183.191 9.78516 182.734 10C182.5 10.1055 182.258 10.1582 182.008 10.1582C181.535 10.1582 181.096 9.9668 180.689 9.58398C180.283 9.19727 179.959 8.71875 179.717 8.14844C179.479 7.57422 179.359 7.01953 179.359 6.48438V5.93945ZM182.025 9.8125C183.119 9.8125 183.666 8.67773 183.666 6.4082C183.666 5.45898 183.646 4.82031 183.607 4.49219C183.525 3.80469 183.371 3.28125 183.145 2.92188C182.863 2.48438 182.459 2.26562 181.932 2.26562C180.939 2.26562 180.402 3.26758 180.32 5.27148C180.309 5.56055 180.303 5.9082 180.303 6.31445C180.303 7.38086 180.418 8.20703 180.648 8.79297C180.918 9.47266 181.377 9.8125 182.025 9.8125ZM185.822 4.35742L185.682 4.375C185.643 4.375 185.623 4.36328 185.623 4.33984C185.623 4.23047 185.688 3.99023 185.816 3.61914C185.945 3.24414 186.094 2.96875 186.262 2.79297C186.828 2.21094 187.465 1.91992 188.172 1.91992C188.879 1.91992 189.447 2.14258 189.877 2.58789C190.307 3.0293 190.521 3.58594 190.521 4.25781C190.521 4.92578 190.088 5.66406 189.221 6.47266C188.947 6.73047 188.719 6.9375 188.535 7.09375C188.301 7.29297 187.887 7.68164 187.293 8.25977C186.703 8.83398 186.408 9.15039 186.408 9.20898H189.707C189.992 9.20898 190.193 9.12891 190.311 8.96875C190.381 8.875 190.471 8.62695 190.58 8.22461H190.803L190.551 9.80664C190.531 9.89648 190.486 9.96094 190.416 10H185.541C185.521 10 185.512 9.94922 185.512 9.84766C185.512 9.75 185.602 9.59766 185.781 9.39062C185.965 9.18359 186.197 8.93945 186.479 8.6582C186.764 8.37305 187.15 7.98438 187.639 7.49219C188.881 6.23047 189.502 5.2207 189.502 4.46289C189.502 3.99805 189.332 3.57812 188.992 3.20312C188.656 2.82422 188.264 2.63477 187.814 2.63477C187.369 2.63477 186.971 2.78516 186.619 3.08594C186.275 3.38672 186.043 3.77539 185.922 4.25195C185.906 4.32227 185.873 4.35742 185.822 4.35742ZM192.449 3.9707C192.422 3.9707 192.383 3.91992 192.332 3.81836C192.332 3.80664 192.402 3.75586 192.543 3.66602C192.684 3.57227 192.963 3.33984 193.381 2.96875C193.799 2.59766 194.145 2.24805 194.418 1.91992H194.746C194.797 1.91992 194.828 1.92773 194.84 1.94336C194.852 1.95898 194.857 1.98828 194.857 2.03125V9.17969C194.857 9.42578 194.883 9.56445 194.934 9.5957C195.125 9.70898 195.514 9.76562 196.1 9.76562C196.131 9.76562 196.146 9.78125 196.146 9.8125V9.95312C196.146 9.98438 196.131 10 196.1 10H192.572C192.541 10 192.525 9.98438 192.525 9.95312V9.8125C192.525 9.78125 192.541 9.76562 192.572 9.76562C192.768 9.75391 192.938 9.74609 193.082 9.74219C193.227 9.73438 193.379 9.72266 193.539 9.70703C193.699 9.69141 193.811 9.66602 193.873 9.63086C193.939 9.5957 193.979 9.54297 193.99 9.47266C194.002 9.40234 194.008 9.31055 194.008 9.19727V2.95703C194.012 2.94922 193.969 2.98047 193.879 3.05078C193.371 3.45703 192.906 3.76172 192.484 3.96484L192.449 3.9707Z" fill="black"/>
</svg>
