<svg width="361" height="23" viewBox="0 0 361 23" fill="none" xmlns="http://www.w3.org/2000/svg">
<path d="M169.613 6.36133H170.381V16.2051H169.613V6.36133Z" fill="black"/>
<path d="M66.0557 15.8281C66.0557 15.7995 66.0718 15.7852 66.104 15.7852H66.2544C66.6053 15.7852 66.8864 15.71 67.0977 15.5596C67.3125 15.4092 67.4199 15.2337 67.4199 15.0332V9.0874C67.4199 9.01221 67.4038 8.97103 67.3716 8.96387C67.3429 8.95312 67.3071 8.94417 67.2642 8.93701H65.2017C64.8687 9.00863 64.6502 9.26465 64.5464 9.70508C64.4891 9.94141 64.4551 10.0936 64.4443 10.1616C64.4336 10.2261 64.4139 10.2583 64.3853 10.2583H64.2886C64.2671 10.2583 64.2563 10.2511 64.2563 10.2368V10.0596L64.4551 8.38379C64.4766 8.27279 64.5124 8.21729 64.5625 8.21729C64.6126 8.21729 64.6663 8.25309 64.7236 8.32471C64.7809 8.39274 64.8901 8.42676 65.0513 8.42676H70.8413C70.9953 8.42676 71.0884 8.40885 71.1206 8.37305C71.1528 8.33724 71.1833 8.30322 71.2119 8.271C71.2406 8.23519 71.2764 8.21729 71.3193 8.21729C71.3659 8.21729 71.3945 8.23519 71.4053 8.271C71.4196 8.3068 71.4303 8.3444 71.4375 8.38379L71.6362 10.0596V10.2368C71.6362 10.2511 71.6255 10.2583 71.604 10.2583H71.5073C71.4787 10.2583 71.459 10.2314 71.4482 10.1777C71.391 9.81966 71.3086 9.53678 71.2012 9.3291C71.0938 9.11784 70.9237 8.98714 70.6909 8.93701H68.623C68.5801 8.94417 68.5425 8.95312 68.5103 8.96387C68.4816 8.97103 68.4673 9.01221 68.4673 9.0874V15.0332C68.4673 15.2337 68.5729 15.4092 68.7842 15.5596C68.999 15.71 69.2819 15.7852 69.6328 15.7852H69.7886C69.8172 15.7852 69.8315 15.7995 69.8315 15.8281V15.957C69.8315 15.9857 69.8172 16 69.7886 16H66.0986C66.07 16 66.0557 15.9857 66.0557 15.957V15.8281ZM73.2207 13.1694C73.1598 13.1694 73.1294 13.3001 73.1294 13.5615C73.1294 14.1165 73.2941 14.582 73.6235 14.958C73.953 15.334 74.3612 15.522 74.8481 15.522C75.3387 15.522 75.8096 15.3107 76.2607 14.8882C76.2679 14.881 76.2769 14.8774 76.2876 14.8774H76.3145C76.3359 14.8774 76.3556 14.8953 76.3735 14.9312C76.395 14.9634 76.4147 14.9849 76.4326 14.9956C76.0173 15.5005 75.5285 15.8496 74.9663 16.043C74.7729 16.111 74.5545 16.145 74.311 16.145C74.0675 16.145 73.8205 16.0788 73.5698 15.9463C73.3192 15.8102 73.1043 15.633 72.9253 15.4146C72.5457 14.9598 72.356 14.394 72.356 13.7173C72.356 13.0369 72.5618 12.4175 72.9736 11.8589C73.389 11.3003 73.9583 11.021 74.6816 11.021C75.2008 11.021 75.6252 11.2537 75.9546 11.7192C76.284 12.1812 76.4487 12.5876 76.4487 12.9385C76.4487 13.0924 76.4111 13.1694 76.3359 13.1694H73.2207ZM73.2798 12.6538C73.2798 12.7218 73.312 12.7559 73.3765 12.7559H75.4014C75.4945 12.7559 75.541 12.7004 75.541 12.5894C75.541 12.3315 75.4246 12.0684 75.1919 11.7998C74.9627 11.5277 74.7103 11.3916 74.4346 11.3916C74.166 11.3916 73.9207 11.5133 73.6987 11.7568C73.4803 12.0003 73.3407 12.2778 73.2798 12.5894V12.6538ZM80.6167 12.1489C80.5737 12.1418 80.5111 12.1185 80.4287 12.0791C80.1315 11.943 79.8988 11.875 79.7305 11.875C79.5622 11.875 79.3849 11.9806 79.1987 12.1919C79.0161 12.3996 78.9248 12.5876 78.9248 12.7559V15.1836C78.9248 15.4521 79.0806 15.6312 79.3921 15.7207C79.5282 15.7565 79.6553 15.7834 79.7734 15.8013C79.8916 15.8156 79.9668 15.8299 79.999 15.8442C80.0348 15.8586 80.0527 15.8872 80.0527 15.9302C80.0527 15.9696 80.0348 15.9928 79.999 16H77.3081C77.2723 15.9928 77.2544 15.9678 77.2544 15.9248C77.2544 15.8604 77.3385 15.8174 77.5068 15.7959C77.8936 15.7386 78.0869 15.5345 78.0869 15.1836V12.3423C78.0869 12.1919 78.0046 12.0881 77.8398 12.0308C77.7682 12.0057 77.6912 11.986 77.6089 11.9717C77.5265 11.9538 77.4603 11.9377 77.4102 11.9233C77.3636 11.909 77.3332 11.8965 77.3188 11.8857C77.3081 11.8714 77.3027 11.8446 77.3027 11.8052C77.3027 11.7622 77.3296 11.7264 77.3833 11.6978L78.7529 11.0532C78.7959 11.0317 78.8228 11.021 78.8335 11.021C78.8944 11.021 78.9248 11.064 78.9248 11.1499V12.02C78.9248 12.063 78.9355 12.0845 78.957 12.0845C78.9857 12.0845 79.0591 12.0003 79.1772 11.832C79.5174 11.3558 79.7985 11.1177 80.0205 11.1177C80.1458 11.1177 80.3374 11.1678 80.5952 11.2681C80.8566 11.3683 80.9873 11.4525 80.9873 11.5205C80.9873 11.6029 80.9461 11.7282 80.8638 11.8965C80.7814 12.0648 80.6991 12.1489 80.6167 12.1489ZM88.4478 14.3081L88.437 13.1748C88.437 12.7129 88.3976 12.3888 88.3188 12.2026C88.2401 12.0164 88.1398 11.8768 88.0181 11.7837C87.8963 11.687 87.7316 11.6387 87.5239 11.6387C87.3198 11.6387 86.8848 11.7998 86.2188 12.1221C86.1292 12.1758 86.0827 12.2259 86.0791 12.2725V15.1621C86.0791 15.5238 86.2725 15.7314 86.6592 15.7852C86.8275 15.8102 86.9116 15.8514 86.9116 15.9087C86.9116 15.9624 86.8937 15.9928 86.8579 16H84.4624C84.4266 15.9928 84.4087 15.9678 84.4087 15.9248C84.4087 15.8568 84.4928 15.8102 84.6611 15.7852C85.0479 15.7314 85.2412 15.5238 85.2412 15.1621V12.4873C85.2412 11.9251 84.8939 11.644 84.1992 11.644C83.945 11.644 83.5923 11.7944 83.1411 12.0952C83.0265 12.1704 82.9424 12.2402 82.8887 12.3047V15.1621C82.8887 15.5238 83.082 15.7314 83.4688 15.7852C83.637 15.8102 83.7212 15.8514 83.7212 15.9087C83.7212 15.9624 83.7033 15.9928 83.6675 16H81.272C81.2362 15.9928 81.2183 15.9678 81.2183 15.9248C81.2183 15.8568 81.3024 15.8102 81.4707 15.7852C81.8574 15.7314 82.0508 15.5273 82.0508 15.1729V12.0791C82.0508 11.9287 81.9684 11.8249 81.8037 11.7676C81.7321 11.7425 81.6551 11.7228 81.5728 11.7085C81.4904 11.6906 81.4242 11.6745 81.374 11.6602C81.3275 11.6458 81.297 11.6333 81.2827 11.6226C81.272 11.6082 81.2666 11.5814 81.2666 11.542C81.2666 11.499 81.2935 11.4632 81.3472 11.4346L82.7168 10.79C82.7598 10.7686 82.7866 10.7578 82.7974 10.7578C82.8582 10.7578 82.8887 10.8008 82.8887 10.8867V11.7783C82.8923 11.7998 82.9048 11.8105 82.9263 11.8105C82.9513 11.8105 83.0104 11.7855 83.1035 11.7354C83.2002 11.6852 83.3255 11.6154 83.4795 11.5259C83.6335 11.4328 83.8358 11.3254 84.0864 11.2036C84.3407 11.0819 84.6092 11.021 84.8921 11.021C85.3468 11.021 85.6727 11.2161 85.8696 11.6064C85.9448 11.764 86.0129 11.832 86.0737 11.8105C86.1346 11.7855 86.2295 11.7407 86.3584 11.6763C86.6628 11.5259 86.9707 11.3791 87.2822 11.2358C87.5938 11.0926 87.8516 11.021 88.0557 11.021C88.8828 11.021 89.2964 11.7747 89.2964 13.2822L89.248 14.8506V15.1621C89.248 15.4414 89.3877 15.624 89.667 15.71C89.7852 15.7493 89.8979 15.778 90.0054 15.7959C90.1164 15.8102 90.188 15.8245 90.2202 15.8389C90.256 15.8532 90.2739 15.8818 90.2739 15.9248C90.2739 15.9678 90.256 15.9928 90.2202 16H87.6313C87.5955 15.9928 87.5776 15.9678 87.5776 15.9248C87.5776 15.8568 87.6618 15.8102 87.8301 15.7852C88.2132 15.7314 88.4048 15.5094 88.4048 15.1191C88.4334 14.9401 88.4478 14.6698 88.4478 14.3081ZM93.2764 12.3262C93.2764 12.4049 93.2459 12.4443 93.1851 12.4443C93.1278 12.4443 93.083 12.4014 93.0508 12.3154C92.9648 12.0791 92.8359 11.8696 92.6641 11.687C92.4958 11.5044 92.2863 11.4131 92.0356 11.4131C91.7062 11.4131 91.4842 11.5778 91.3696 11.9072C91.3338 12.0182 91.3159 12.1328 91.3159 12.251C91.3159 12.3691 91.3911 12.5016 91.5415 12.6484C91.6919 12.7917 91.939 12.9635 92.2827 13.1641C92.6265 13.3646 92.8771 13.5347 93.0347 13.6743C93.3927 13.993 93.5718 14.3618 93.5718 14.7808C93.5718 15.1997 93.4178 15.5327 93.1099 15.7798C92.8019 16.0233 92.4438 16.145 92.0356 16.145C91.8172 16.145 91.6185 16.1146 91.4395 16.0537C91.264 15.9964 91.1619 15.9678 91.1333 15.9678C91.1082 15.9678 91.0653 15.9964 91.0044 16.0537C90.9471 16.1146 90.9006 16.145 90.8647 16.145H90.7734C90.752 16.145 90.7251 15.9517 90.6929 15.5649C90.6606 15.1782 90.6445 14.9491 90.6445 14.8774C90.6445 14.8058 90.6499 14.7664 90.6606 14.7593C90.675 14.7521 90.6965 14.7485 90.7251 14.7485C90.7537 14.7485 90.777 14.7575 90.7949 14.7754C90.8164 14.7933 90.8343 14.8166 90.8486 14.8452C90.863 14.8703 90.8737 14.8971 90.8809 14.9258C90.8916 14.9544 90.9149 15.0081 90.9507 15.0869C91.1942 15.6061 91.5701 15.8657 92.0786 15.8657C92.3042 15.8657 92.485 15.7834 92.6211 15.6187C92.7572 15.4504 92.8252 15.2642 92.8252 15.0601C92.8252 14.856 92.7715 14.6841 92.6641 14.5444C92.5566 14.4048 92.4224 14.2777 92.2612 14.1631C92.1037 14.0485 91.9318 13.9375 91.7456 13.8301C91.0223 13.4076 90.6606 12.9403 90.6606 12.4282C90.6606 12.0451 90.8254 11.7157 91.1548 11.4399C91.4842 11.1606 91.8226 11.021 92.1699 11.021C92.5173 11.021 92.7733 11.0586 92.938 11.1338C93.1063 11.209 93.2048 11.2734 93.2334 11.3271C93.262 11.3773 93.2764 11.5456 93.2764 11.832V12.3262ZM104.438 15.4844C104.466 15.4844 104.48 15.5184 104.48 15.5864C104.48 15.6509 104.47 15.6867 104.448 15.6938C103.961 16.009 103.542 16.1665 103.191 16.1665C102.844 16.1665 102.545 16.0036 102.294 15.6777C102.173 15.5273 102.055 15.3608 101.94 15.1782C101.825 14.9956 101.729 14.856 101.65 14.7593C100.644 15.6831 99.7503 16.145 98.9697 16.145C98.4505 16.145 98.0011 15.932 97.6216 15.5059C97.2456 15.0762 97.0576 14.5928 97.0576 14.0557C97.0576 13.3037 97.4676 12.6968 98.2876 12.2349C98.5347 12.0952 98.8014 11.9681 99.0879 11.8535C98.6797 11.4561 98.4272 11.0872 98.3306 10.7471C98.2948 10.611 98.2769 10.4463 98.2769 10.2529C98.2769 9.86621 98.438 9.55469 98.7603 9.31836C99.0825 9.07845 99.4478 8.9585 99.856 8.9585C100.264 8.9585 100.619 9.07845 100.919 9.31836C101.224 9.55469 101.376 9.868 101.376 10.2583C101.376 10.7202 101.038 11.1571 100.361 11.5688C100.282 11.6154 100.239 11.6423 100.232 11.6494C100.225 11.6566 100.221 11.6727 100.221 11.6978C100.221 11.7192 100.241 11.7497 100.28 11.7891C100.323 11.8249 100.37 11.866 100.42 11.9126C100.474 11.9591 100.551 12.029 100.651 12.1221C100.755 12.2152 100.857 12.3029 100.957 12.3853C101.057 12.4676 101.261 12.7039 101.569 13.0942C101.877 13.4845 102.04 13.6797 102.058 13.6797C102.097 13.6797 102.124 13.6654 102.139 13.6367L103.369 11.7783C103.458 11.6423 103.503 11.5259 103.503 11.4292C103.503 11.3325 103.472 11.2663 103.412 11.2305C103.351 11.1911 103.283 11.1642 103.208 11.1499C103.136 11.132 103.07 11.1159 103.009 11.1016C102.948 11.0837 102.917 11.0443 102.917 10.9834C102.917 10.9189 102.935 10.8867 102.971 10.8867H104.942C104.957 10.9118 104.964 10.9512 104.964 11.0049C104.964 11.055 104.955 11.0872 104.937 11.1016C104.916 11.1159 104.797 11.1338 104.583 11.1553C104.232 11.1875 103.988 11.311 103.852 11.5259L102.268 14.0342L102.939 15.189C103.139 15.5399 103.385 15.7153 103.675 15.7153C103.829 15.7153 103.981 15.6813 104.131 15.6133C104.282 15.5452 104.384 15.5023 104.438 15.4844ZM99.4263 15.5059C99.7843 15.5059 100.119 15.4217 100.431 15.2534C100.742 15.0815 101.054 14.8649 101.365 14.6035C101.426 14.5462 101.455 14.5015 101.451 14.4692C101.451 14.437 101.451 14.4173 101.451 14.4102C101.448 14.403 101.446 14.394 101.446 14.3833C100.962 13.5526 100.368 12.8543 99.6626 12.2886C99.6232 12.2563 99.5767 12.217 99.5229 12.1704C99.4692 12.1239 99.4173 12.1006 99.3672 12.1006C99.3027 12.1006 99.1989 12.1436 99.0557 12.2295C98.7513 12.4085 98.5024 12.661 98.3091 12.9868C98.1193 13.3127 98.0244 13.6117 98.0244 13.8838C98.0244 14.3564 98.1694 14.745 98.4595 15.0493C98.7495 15.3537 99.0718 15.5059 99.4263 15.5059ZM100.662 10.2798C100.662 9.61377 100.381 9.28076 99.8184 9.28076C99.4567 9.28076 99.2222 9.44368 99.1147 9.76953C99.0825 9.86979 99.0664 10.0166 99.0664 10.21C99.0664 10.3997 99.1398 10.6146 99.2866 10.8545C99.4334 11.0944 99.6322 11.2913 99.8828 11.4453C100.105 11.4059 100.289 11.2609 100.436 11.0103C100.586 10.7596 100.662 10.5161 100.662 10.2798ZM115.287 15.7959C115.269 15.8245 115.224 15.8317 115.153 15.8174C115.085 15.7995 115.004 15.7905 114.911 15.7905C114.818 15.7905 114.686 15.8102 114.514 15.8496C114.345 15.8854 114.079 15.9427 113.713 16.0215C113.348 16.1038 113.015 16.145 112.714 16.145C112.034 16.145 111.373 15.9857 110.732 15.667C110.095 15.3447 109.585 14.89 109.202 14.3027C108.819 13.7119 108.627 13.028 108.627 12.251C108.627 11.474 108.819 10.7703 109.202 10.1401C109.76 9.21631 110.602 8.61475 111.726 8.33545C112.084 8.24593 112.442 8.20117 112.8 8.20117C113.291 8.20117 113.873 8.28353 114.546 8.44824C114.75 8.49837 114.922 8.55029 115.062 8.604C115.205 8.65771 115.292 8.68457 115.325 8.68457L115.486 8.6416H115.652C115.695 8.6416 115.717 8.67204 115.717 8.73291V10.4033C115.717 10.4391 115.685 10.457 115.62 10.457C115.556 10.457 115.518 10.4499 115.507 10.4355C115.497 10.4176 115.486 10.3979 115.475 10.3765C115.464 10.3514 115.452 10.3263 115.438 10.3013C115.427 10.2762 115.414 10.2529 115.4 10.2314C115.389 10.21 115.382 10.1938 115.378 10.1831C114.841 9.10531 114.027 8.56641 112.935 8.56641C111.95 8.56641 111.18 8.87972 110.625 9.50635C110.07 10.133 109.792 10.9637 109.792 11.9985C109.792 13.0298 110.097 13.916 110.706 14.6572C111.318 15.3984 112.149 15.769 113.198 15.769C113.771 15.769 114.292 15.599 114.761 15.2588C115.233 14.9186 115.604 14.5015 115.873 14.0073C115.88 13.9858 115.901 13.9751 115.937 13.9751H116.007C116.043 13.9751 116.061 13.9966 116.061 14.0396C116.061 14.0825 116.05 14.1237 116.028 14.1631L115.287 15.7959ZM116.877 13.5884C116.877 12.883 117.126 12.2778 117.624 11.7729C118.125 11.2645 118.725 11.0103 119.423 11.0103C120.121 11.0103 120.728 11.2573 121.244 11.7515C121.759 12.242 122.017 12.849 122.017 13.5723C122.017 14.2956 121.772 14.9061 121.281 15.4038C120.794 15.8979 120.182 16.145 119.444 16.145C118.707 16.145 118.094 15.8944 117.607 15.3931C117.12 14.8918 116.877 14.2902 116.877 13.5884ZM118.214 14.9688C118.565 15.5596 119.043 15.855 119.648 15.855C120.118 15.855 120.476 15.667 120.723 15.291C120.973 14.915 121.099 14.4531 121.099 13.9053C121.099 13.3574 120.923 12.7952 120.572 12.2188C120.225 11.6423 119.756 11.354 119.165 11.354C118.732 11.354 118.39 11.542 118.139 11.918C117.892 12.2904 117.769 12.7648 117.769 13.3413C117.769 13.9142 117.917 14.4567 118.214 14.9688ZM126.744 14.3081L126.733 13.1748C126.733 12.7129 126.694 12.3888 126.615 12.2026C126.536 12.0164 126.436 11.8768 126.314 11.7837C126.192 11.687 126.028 11.6387 125.82 11.6387C125.616 11.6387 125.181 11.7998 124.515 12.1221C124.425 12.1758 124.379 12.2259 124.375 12.2725V15.1621C124.375 15.5238 124.568 15.7314 124.955 15.7852C125.123 15.8102 125.208 15.8514 125.208 15.9087C125.208 15.9624 125.19 15.9928 125.154 16H122.758C122.722 15.9928 122.705 15.9678 122.705 15.9248C122.705 15.8568 122.789 15.8102 122.957 15.7852C123.344 15.7314 123.537 15.5238 123.537 15.1621V12.0791C123.537 11.9287 123.455 11.8249 123.29 11.7676C123.218 11.7425 123.141 11.7228 123.059 11.7085C122.977 11.6906 122.91 11.6745 122.86 11.6602C122.814 11.6458 122.783 11.6333 122.769 11.6226C122.758 11.6082 122.753 11.5814 122.753 11.542C122.753 11.499 122.78 11.4632 122.833 11.4346L124.203 10.79C124.246 10.7686 124.273 10.7578 124.284 10.7578C124.345 10.7578 124.375 10.8008 124.375 10.8867V11.7246C124.386 11.7604 124.4 11.7783 124.418 11.7783C124.439 11.7783 124.516 11.7461 124.649 11.6816C124.957 11.5277 125.267 11.3791 125.578 11.2358C125.89 11.0926 126.147 11.021 126.352 11.021C127.179 11.021 127.592 11.7747 127.592 13.2822L127.544 14.8506V15.1621C127.544 15.4414 127.684 15.624 127.963 15.71C128.081 15.7493 128.194 15.778 128.301 15.7959C128.412 15.8102 128.484 15.8245 128.516 15.8389C128.552 15.8532 128.57 15.8818 128.57 15.9248C128.57 15.9678 128.552 15.9928 128.516 16H125.927C125.891 15.9928 125.874 15.9678 125.874 15.9248C125.874 15.8568 125.958 15.8102 126.126 15.7852C126.509 15.7314 126.701 15.5094 126.701 15.1191C126.729 14.9401 126.744 14.6698 126.744 14.3081ZM132.367 11.2466C132.525 11.3003 132.621 11.3271 132.657 11.3271C132.693 11.3271 132.715 11.3271 132.722 11.3271C132.732 11.3236 132.745 11.3003 132.759 11.2573V8.48584C132.759 8.33545 132.677 8.23161 132.512 8.17432C132.441 8.14925 132.364 8.12956 132.281 8.11523C132.199 8.09733 132.133 8.08122 132.083 8.06689C132.036 8.05257 132.006 8.04004 131.991 8.0293C131.98 8.01497 131.975 7.98812 131.975 7.94873C131.975 7.90576 132.002 7.86995 132.056 7.84131L133.425 7.19678C133.468 7.17529 133.495 7.16455 133.506 7.16455C133.567 7.16455 133.597 7.20752 133.597 7.29346V14.9419C133.615 15.0994 133.66 15.2122 133.731 15.2803C133.803 15.3483 133.919 15.3823 134.081 15.3823L134.392 15.3608C134.414 15.3608 134.424 15.3823 134.424 15.4253C134.424 15.4647 134.397 15.4969 134.344 15.522L132.915 16.1128C132.872 16.1343 132.834 16.145 132.802 16.145C132.774 16.145 132.759 16.1003 132.759 16.0107V15.522C132.759 15.4862 132.75 15.4683 132.732 15.4683C132.707 15.4683 132.559 15.5488 132.287 15.71C131.452 16.2041 130.749 16.2775 130.176 15.9302C129.717 15.6509 129.408 15.2087 129.247 14.6035C129.171 14.3206 129.134 14.0216 129.134 13.7065C129.134 13.3879 129.198 13.0728 129.327 12.7612C129.46 12.4461 129.64 12.1704 129.87 11.9341C130.375 11.4185 130.983 11.1606 131.696 11.1606C131.986 11.1606 132.21 11.1893 132.367 11.2466ZM129.945 13.5508C129.945 14.0915 130.095 14.5659 130.396 14.9741C130.697 15.3787 131.116 15.5811 131.653 15.5811C131.889 15.5811 132.133 15.5238 132.383 15.4092C132.634 15.291 132.759 15.2015 132.759 15.1406V12.3691C132.759 12.3011 132.713 12.2205 132.62 12.1274C132.333 11.7336 131.952 11.5366 131.476 11.5366C131.003 11.5366 130.629 11.7371 130.353 12.1382C130.081 12.5356 129.945 13.0065 129.945 13.5508ZM134.908 16C134.872 15.9928 134.854 15.9678 134.854 15.9248C134.854 15.8604 134.938 15.8174 135.106 15.7959C135.493 15.7386 135.687 15.5345 135.687 15.1836V12.3423C135.687 12.1919 135.604 12.0881 135.439 12.0308C135.368 12.0057 135.291 11.986 135.208 11.9717C135.126 11.9538 135.06 11.9377 135.01 11.9233C134.963 11.909 134.933 11.8965 134.918 11.8857C134.908 11.8714 134.902 11.8446 134.902 11.8052C134.902 11.7622 134.929 11.7264 134.983 11.6978L136.353 11.0532C136.396 11.0317 136.422 11.021 136.433 11.021C136.494 11.021 136.524 11.064 136.524 11.1499V15.1836C136.524 15.5345 136.718 15.7386 137.104 15.7959C137.273 15.8174 137.357 15.855 137.357 15.9087C137.357 15.9624 137.339 15.9928 137.303 16H134.908ZM136.025 9.51172C135.878 9.51172 135.747 9.46517 135.633 9.37207C135.522 9.27897 135.466 9.15007 135.466 8.98535C135.466 8.81706 135.52 8.68457 135.627 8.58789C135.735 8.49121 135.862 8.44287 136.009 8.44287C136.159 8.44287 136.285 8.50016 136.385 8.61475C136.489 8.72933 136.541 8.85286 136.541 8.98535C136.541 9.11784 136.492 9.23958 136.396 9.35059C136.299 9.45801 136.175 9.51172 136.025 9.51172ZM139.307 11.8696C139.285 11.8696 139.274 11.8857 139.274 11.918V14.8828C139.274 15.0977 139.321 15.266 139.414 15.3877C139.511 15.5094 139.632 15.5703 139.779 15.5703C139.926 15.5703 140.053 15.547 140.161 15.5005C140.272 15.4504 140.367 15.3966 140.445 15.3394C140.528 15.2821 140.601 15.2301 140.666 15.1836C140.73 15.1335 140.787 15.1084 140.837 15.1084C140.888 15.1084 140.913 15.1209 140.913 15.146C140.913 15.2319 140.904 15.2874 140.886 15.3125C140.456 15.8675 140.041 16.145 139.64 16.145C139.242 16.145 138.941 16.0197 138.737 15.769C138.537 15.5148 138.437 15.2122 138.437 14.8613V11.8696H138.034C137.933 11.8696 137.88 11.8374 137.873 11.7729C137.869 11.7085 137.88 11.6673 137.905 11.6494C138.095 11.5277 138.356 11.3092 138.689 10.9941C138.725 10.9548 138.773 10.8957 138.834 10.8169C138.895 10.7381 138.983 10.6307 139.097 10.4946C139.215 10.3586 139.305 10.2905 139.366 10.2905C139.427 10.2905 139.457 10.3156 139.457 10.3657C139.457 10.3729 139.396 10.6074 139.274 11.0693C139.274 11.1338 139.303 11.1678 139.36 11.1714H140.73C140.888 11.1714 140.966 11.3934 140.966 11.8374C140.966 11.8589 140.952 11.8696 140.923 11.8696H139.307ZM141.482 16C141.446 15.9928 141.428 15.9678 141.428 15.9248C141.428 15.8604 141.512 15.8174 141.681 15.7959C142.067 15.7386 142.261 15.5345 142.261 15.1836V12.3423C142.261 12.1919 142.178 12.0881 142.014 12.0308C141.942 12.0057 141.865 11.986 141.783 11.9717C141.7 11.9538 141.634 11.9377 141.584 11.9233C141.537 11.909 141.507 11.8965 141.493 11.8857C141.482 11.8714 141.477 11.8446 141.477 11.8052C141.477 11.7622 141.503 11.7264 141.557 11.6978L142.927 11.0532C142.97 11.0317 142.997 11.021 143.007 11.021C143.068 11.021 143.099 11.064 143.099 11.1499V15.1836C143.099 15.5345 143.292 15.7386 143.679 15.7959C143.847 15.8174 143.931 15.855 143.931 15.9087C143.931 15.9624 143.913 15.9928 143.877 16H141.482ZM142.599 9.51172C142.452 9.51172 142.322 9.46517 142.207 9.37207C142.096 9.27897 142.041 9.15007 142.041 8.98535C142.041 8.81706 142.094 8.68457 142.202 8.58789C142.309 8.49121 142.436 8.44287 142.583 8.44287C142.733 8.44287 142.859 8.50016 142.959 8.61475C143.063 8.72933 143.115 8.85286 143.115 8.98535C143.115 9.11784 143.066 9.23958 142.97 9.35059C142.873 9.45801 142.75 9.51172 142.599 9.51172ZM144.603 13.5884C144.603 12.883 144.851 12.2778 145.349 11.7729C145.85 11.2645 146.45 11.0103 147.148 11.0103C147.847 11.0103 148.454 11.2573 148.969 11.7515C149.485 12.242 149.743 12.849 149.743 13.5723C149.743 14.2956 149.497 14.9061 149.007 15.4038C148.52 15.8979 147.908 16.145 147.17 16.145C146.432 16.145 145.82 15.8944 145.333 15.3931C144.846 14.8918 144.603 14.2902 144.603 13.5884ZM145.94 14.9688C146.291 15.5596 146.769 15.855 147.374 15.855C147.843 15.855 148.201 15.667 148.448 15.291C148.699 14.915 148.824 14.4531 148.824 13.9053C148.824 13.3574 148.649 12.7952 148.298 12.2188C147.951 11.6423 147.481 11.354 146.891 11.354C146.457 11.354 146.115 11.542 145.865 11.918C145.618 12.2904 145.494 12.7648 145.494 13.3413C145.494 13.9142 145.643 14.4567 145.94 14.9688ZM154.469 14.3081L154.458 13.1748C154.458 12.7129 154.419 12.3888 154.34 12.2026C154.262 12.0164 154.161 11.8768 154.04 11.7837C153.918 11.687 153.753 11.6387 153.545 11.6387C153.341 11.6387 152.906 11.7998 152.24 12.1221C152.151 12.1758 152.104 12.2259 152.101 12.2725V15.1621C152.101 15.5238 152.294 15.7314 152.681 15.7852C152.849 15.8102 152.933 15.8514 152.933 15.9087C152.933 15.9624 152.915 15.9928 152.879 16H150.484C150.448 15.9928 150.43 15.9678 150.43 15.9248C150.43 15.8568 150.514 15.8102 150.683 15.7852C151.069 15.7314 151.263 15.5238 151.263 15.1621V12.0791C151.263 11.9287 151.18 11.8249 151.016 11.7676C150.944 11.7425 150.867 11.7228 150.785 11.7085C150.702 11.6906 150.636 11.6745 150.586 11.6602C150.539 11.6458 150.509 11.6333 150.495 11.6226C150.484 11.6082 150.479 11.5814 150.479 11.542C150.479 11.499 150.505 11.4632 150.559 11.4346L151.929 10.79C151.972 10.7686 151.999 10.7578 152.009 10.7578C152.07 10.7578 152.101 10.8008 152.101 10.8867V11.7246C152.111 11.7604 152.126 11.7783 152.144 11.7783C152.165 11.7783 152.242 11.7461 152.375 11.6816C152.682 11.5277 152.992 11.3791 153.304 11.2358C153.615 11.0926 153.873 11.021 154.077 11.021C154.904 11.021 155.318 11.7747 155.318 13.2822L155.27 14.8506V15.1621C155.27 15.4414 155.409 15.624 155.688 15.71C155.807 15.7493 155.919 15.778 156.027 15.7959C156.138 15.8102 156.209 15.8245 156.242 15.8389C156.278 15.8532 156.295 15.8818 156.295 15.9248C156.295 15.9678 156.278 15.9928 156.242 16H153.653C153.617 15.9928 153.599 15.9678 153.599 15.9248C153.599 15.8568 153.683 15.8102 153.852 15.7852C154.235 15.7314 154.426 15.5094 154.426 15.1191C154.455 14.9401 154.469 14.6698 154.469 14.3081ZM159.384 12.3262C159.384 12.4049 159.353 12.4443 159.292 12.4443C159.235 12.4443 159.19 12.4014 159.158 12.3154C159.072 12.0791 158.943 11.8696 158.771 11.687C158.603 11.5044 158.394 11.4131 158.143 11.4131C157.814 11.4131 157.592 11.5778 157.477 11.9072C157.441 12.0182 157.423 12.1328 157.423 12.251C157.423 12.3691 157.499 12.5016 157.649 12.6484C157.799 12.7917 158.046 12.9635 158.39 13.1641C158.734 13.3646 158.985 13.5347 159.142 13.6743C159.5 13.993 159.679 14.3618 159.679 14.7808C159.679 15.1997 159.525 15.5327 159.217 15.7798C158.909 16.0233 158.551 16.145 158.143 16.145C157.925 16.145 157.726 16.1146 157.547 16.0537C157.371 15.9964 157.269 15.9678 157.241 15.9678C157.216 15.9678 157.173 15.9964 157.112 16.0537C157.055 16.1146 157.008 16.145 156.972 16.145H156.881C156.859 16.145 156.833 15.9517 156.8 15.5649C156.768 15.1782 156.752 14.9491 156.752 14.8774C156.752 14.8058 156.757 14.7664 156.768 14.7593C156.782 14.7521 156.804 14.7485 156.833 14.7485C156.861 14.7485 156.884 14.7575 156.902 14.7754C156.924 14.7933 156.942 14.8166 156.956 14.8452C156.97 14.8703 156.981 14.8971 156.988 14.9258C156.999 14.9544 157.022 15.0081 157.058 15.0869C157.302 15.6061 157.678 15.8657 158.186 15.8657C158.412 15.8657 158.592 15.7834 158.729 15.6187C158.865 15.4504 158.933 15.2642 158.933 15.0601C158.933 14.856 158.879 14.6841 158.771 14.5444C158.664 14.4048 158.53 14.2777 158.369 14.1631C158.211 14.0485 158.039 13.9375 157.853 13.8301C157.13 13.4076 156.768 12.9403 156.768 12.4282C156.768 12.0451 156.933 11.7157 157.262 11.4399C157.592 11.1606 157.93 11.021 158.277 11.021C158.625 11.021 158.881 11.0586 159.045 11.1338C159.214 11.209 159.312 11.2734 159.341 11.3271C159.369 11.3773 159.384 11.5456 159.384 11.832V12.3262Z" fill="black"/>
<path d="M180.052 16C180.024 16 180.009 15.9642 180.009 15.8926V15.8281C180.009 15.7995 180.027 15.7852 180.063 15.7852C180.099 15.7852 180.151 15.7744 180.219 15.7529C180.29 15.7314 180.344 15.7171 180.38 15.71C180.745 15.6276 180.928 15.4199 180.928 15.0869V9.41504C180.928 9.08561 180.867 8.87614 180.745 8.78662C180.623 8.69352 180.403 8.64697 180.084 8.64697H179.843C179.768 8.64697 179.73 8.604 179.73 8.51807C179.73 8.46794 179.753 8.4375 179.8 8.42676H179.837L182.851 8.34619H183.393C184.034 8.38916 184.568 8.62012 184.994 9.03906C185.42 9.45801 185.633 9.9611 185.633 10.5483C185.633 11.132 185.423 11.6619 185.004 12.1382C184.822 12.3494 184.616 12.5213 184.387 12.6538C184.158 12.7827 183.932 12.849 183.71 12.8525L182.099 12.7881H182.056C182.002 12.7881 181.975 12.8132 181.975 12.8633V15.0708C181.975 15.2677 182.029 15.4128 182.136 15.5059C182.244 15.599 182.471 15.6724 182.818 15.7261C182.865 15.7332 182.94 15.7458 183.044 15.7637C183.148 15.778 183.218 15.7852 183.253 15.7852C183.289 15.7852 183.307 15.7995 183.307 15.8281V15.957C183.307 15.9857 183.293 16 183.264 16H180.052ZM182.41 8.62012C182.367 8.62012 182.321 8.62191 182.271 8.62549C182.224 8.62549 182.163 8.62728 182.088 8.63086C182.013 8.63086 181.975 8.65951 181.975 8.7168V12.1812L181.986 12.3423C181.997 12.4175 182.031 12.4569 182.088 12.4604L182.636 12.4927C183.212 12.4927 183.676 12.2993 184.027 11.9126C184.381 11.5259 184.559 11.0407 184.559 10.457C184.559 9.86979 184.387 9.41504 184.043 9.09277C183.703 8.77051 183.248 8.60938 182.679 8.60938C182.629 8.60938 182.582 8.61117 182.539 8.61475C182.496 8.61475 182.453 8.61654 182.41 8.62012ZM189.667 12.1489C189.624 12.1418 189.561 12.1185 189.479 12.0791C189.181 11.943 188.949 11.875 188.78 11.875C188.612 11.875 188.435 11.9806 188.249 12.1919C188.066 12.3996 187.975 12.5876 187.975 12.7559V15.1836C187.975 15.4521 188.13 15.6312 188.442 15.7207C188.578 15.7565 188.705 15.7834 188.823 15.8013C188.941 15.8156 189.017 15.8299 189.049 15.8442C189.085 15.8586 189.103 15.8872 189.103 15.9302C189.103 15.9696 189.085 15.9928 189.049 16H186.358C186.322 15.9928 186.304 15.9678 186.304 15.9248C186.304 15.8604 186.388 15.8174 186.557 15.7959C186.943 15.7386 187.137 15.5345 187.137 15.1836V12.3423C187.137 12.1919 187.054 12.0881 186.89 12.0308C186.818 12.0057 186.741 11.986 186.659 11.9717C186.576 11.9538 186.51 11.9377 186.46 11.9233C186.413 11.909 186.383 11.8965 186.369 11.8857C186.358 11.8714 186.353 11.8446 186.353 11.8052C186.353 11.7622 186.379 11.7264 186.433 11.6978L187.803 11.0532C187.846 11.0317 187.873 11.021 187.883 11.021C187.944 11.021 187.975 11.064 187.975 11.1499V12.02C187.975 12.063 187.985 12.0845 188.007 12.0845C188.035 12.0845 188.109 12.0003 188.227 11.832C188.567 11.3558 188.848 11.1177 189.07 11.1177C189.196 11.1177 189.387 11.1678 189.645 11.2681C189.906 11.3683 190.037 11.4525 190.037 11.5205C190.037 11.6029 189.996 11.7282 189.914 11.8965C189.831 12.0648 189.749 12.1489 189.667 12.1489ZM190.418 16C190.383 15.9928 190.365 15.9678 190.365 15.9248C190.365 15.8604 190.449 15.8174 190.617 15.7959C191.004 15.7386 191.197 15.5345 191.197 15.1836V12.3423C191.197 12.1919 191.115 12.0881 190.95 12.0308C190.879 12.0057 190.802 11.986 190.719 11.9717C190.637 11.9538 190.571 11.9377 190.521 11.9233C190.474 11.909 190.444 11.8965 190.429 11.8857C190.418 11.8714 190.413 11.8446 190.413 11.8052C190.413 11.7622 190.44 11.7264 190.494 11.6978L191.863 11.0532C191.906 11.0317 191.933 11.021 191.944 11.021C192.005 11.021 192.035 11.064 192.035 11.1499V15.1836C192.035 15.5345 192.229 15.7386 192.615 15.7959C192.784 15.8174 192.868 15.855 192.868 15.9087C192.868 15.9624 192.85 15.9928 192.814 16H190.418ZM191.536 9.51172C191.389 9.51172 191.258 9.46517 191.144 9.37207C191.033 9.27897 190.977 9.15007 190.977 8.98535C190.977 8.81706 191.031 8.68457 191.138 8.58789C191.246 8.49121 191.373 8.44287 191.52 8.44287C191.67 8.44287 191.795 8.50016 191.896 8.61475C191.999 8.72933 192.051 8.85286 192.051 8.98535C192.051 9.11784 192.003 9.23958 191.906 9.35059C191.81 9.45801 191.686 9.51172 191.536 9.51172ZM198.588 11.166C198.627 11.1768 198.647 11.2018 198.647 11.2412C198.647 11.2806 198.642 11.3092 198.631 11.3271C198.62 11.3451 198.541 11.3647 198.395 11.3862C198.248 11.4077 198.142 11.4507 198.078 11.5151C198.017 11.576 197.961 11.6458 197.911 11.7246C197.865 11.8034 197.823 11.8857 197.788 11.9717C197.752 12.054 197.718 12.1292 197.686 12.1973L196.219 15.9893C196.176 16.0931 196.137 16.145 196.101 16.145H195.677C195.641 16.145 195.602 16.0895 195.559 15.9785L194.135 12.1274C194.003 11.7658 193.775 11.533 193.453 11.4292C193.428 11.422 193.398 11.4167 193.362 11.4131C193.211 11.3988 193.136 11.354 193.136 11.2788C193.136 11.2036 193.179 11.166 193.265 11.166H195.655C195.684 11.166 195.698 11.1947 195.698 11.252C195.698 11.3057 195.679 11.3415 195.639 11.3594C195.575 11.3844 195.46 11.3952 195.295 11.3916C195.027 11.3844 194.893 11.4919 194.893 11.7139L194.925 11.8428L196.015 14.8237C196.087 15.0063 196.158 15.001 196.23 14.8076C196.237 14.7897 196.284 14.6733 196.37 14.4585C196.853 13.2231 197.123 12.5088 197.181 12.3154C197.242 12.1221 197.272 11.9771 197.272 11.8804C197.272 11.7837 197.22 11.6834 197.116 11.5796C197.012 11.4722 196.873 11.4185 196.697 11.4185C196.522 11.4185 196.434 11.3647 196.434 11.2573C196.434 11.1965 196.473 11.166 196.552 11.166H198.588ZM202.396 15.1138C202.396 15.2069 202.439 15.2821 202.525 15.3394C202.614 15.3931 202.716 15.4199 202.831 15.4199C202.946 15.4199 203.041 15.3913 203.116 15.334C203.194 15.2731 203.248 15.2427 203.277 15.2427C203.306 15.2427 203.32 15.2821 203.32 15.3608C203.32 15.436 203.284 15.5005 203.212 15.5542C202.675 15.9481 202.312 16.145 202.122 16.145C201.893 16.145 201.707 15.9069 201.563 15.4307C201.553 15.3949 201.544 15.3787 201.537 15.3823C201.093 15.7153 200.813 15.9159 200.699 15.9839C200.405 16.1522 200.11 16.179 199.812 16.0645C199.519 15.9499 199.306 15.7601 199.173 15.4951C199.109 15.359 199.077 15.214 199.077 15.0601C199.077 14.7557 199.189 14.514 199.415 14.335C199.641 14.1559 200.07 13.984 200.704 13.8193C200.919 13.762 201.111 13.6886 201.279 13.5991C201.447 13.5096 201.535 13.4523 201.542 13.4272C201.553 13.4022 201.558 13.3789 201.558 13.3574V12.3262C201.558 11.9215 201.401 11.6369 201.085 11.4722C200.982 11.4185 200.856 11.3916 200.709 11.3916C200.566 11.3916 200.419 11.4489 200.269 11.5635C200.122 11.6781 200.049 11.841 200.049 12.0522L200.076 12.2617C200.054 12.3047 199.925 12.3763 199.689 12.4766C199.453 12.5768 199.317 12.6305 199.281 12.6377C199.223 12.6377 199.195 12.5697 199.195 12.4336C199.195 12.2939 199.236 12.14 199.318 11.9717C199.401 11.8034 199.517 11.6494 199.667 11.5098C200.018 11.1839 200.419 11.021 200.871 11.021C201.322 11.021 201.689 11.1463 201.972 11.397C202.255 11.644 202.396 11.9395 202.396 12.2832V15.1138ZM199.92 14.958C199.92 15.1299 199.986 15.2803 200.119 15.4092C200.251 15.5345 200.402 15.5972 200.57 15.5972C200.742 15.5972 200.949 15.5256 201.193 15.3823C201.436 15.2355 201.558 15.0851 201.558 14.9312V13.8408C201.558 13.8014 201.549 13.7817 201.531 13.7817C201.513 13.7817 201.501 13.7835 201.494 13.7871L200.248 14.3672C200.119 14.4603 200.031 14.5391 199.984 14.6035C199.941 14.668 199.92 14.7861 199.92 14.958ZM208.052 11.6655C208.052 11.9162 207.907 12.0415 207.617 12.0415C207.47 12.0415 207.345 12.0003 207.241 11.918C207.14 11.832 207.062 11.7604 207.004 11.7031C206.951 11.6423 206.893 11.5868 206.833 11.5366C206.575 11.3254 206.26 11.3021 205.887 11.4668C205.518 11.6315 205.234 11.9824 205.033 12.5195C204.922 12.8167 204.867 13.1121 204.867 13.4058C204.867 14.036 205.01 14.5516 205.296 14.9526C205.583 15.3501 206.021 15.5488 206.612 15.5488C207.053 15.5488 207.448 15.3519 207.799 14.958C207.907 14.8398 207.971 14.7808 207.993 14.7808C208.014 14.7808 208.037 14.7915 208.062 14.813C208.088 14.8345 208.1 14.8667 208.1 14.9097C208.1 14.9491 208.089 14.9795 208.068 15.001C207.52 15.7637 206.831 16.145 206 16.145C205.398 16.145 204.904 15.9212 204.518 15.4736C204.134 15.026 203.943 14.514 203.943 13.9375C203.946 12.8704 204.204 12.1024 204.716 11.6333C205.167 11.2215 205.81 11.0156 206.645 11.0156C207.16 11.0156 207.502 11.0675 207.67 11.1714C207.839 11.2752 207.957 11.4059 208.025 11.5635C208.043 11.5993 208.052 11.6333 208.052 11.6655ZM214.094 11.166C214.134 11.1768 214.153 11.2018 214.153 11.2412C214.153 11.2806 214.15 11.3075 214.143 11.3218C214.135 11.3325 214.118 11.3433 214.089 11.354C214.064 11.3612 214.026 11.3683 213.976 11.3755C213.93 11.3826 213.854 11.397 213.75 11.4185C213.647 11.4364 213.554 11.508 213.471 11.6333C213.389 11.7586 213.301 11.9323 213.208 12.1543L210.684 18.4116L210.334 19.1528C210.245 19.3426 210.057 19.4375 209.771 19.4375C209.645 19.4375 209.545 19.3963 209.47 19.314C209.395 19.2316 209.357 19.1331 209.357 19.0186C209.357 18.9076 209.384 18.8252 209.438 18.7715C209.495 18.7214 209.561 18.6802 209.636 18.6479C209.711 18.6157 209.788 18.5853 209.867 18.5566C209.95 18.5316 210.041 18.4707 210.141 18.374C210.241 18.2809 210.3 18.2111 210.318 18.1646C210.92 16.8182 211.221 16.1146 211.221 16.0537C211.221 15.9928 211.185 15.9176 211.113 15.8281L209.341 12.1274C209.208 11.7658 208.981 11.533 208.659 11.4292C208.634 11.422 208.603 11.4167 208.567 11.4131C208.417 11.3988 208.342 11.354 208.342 11.2788C208.342 11.2036 208.385 11.166 208.471 11.166H210.861C210.889 11.166 210.904 11.1947 210.904 11.252C210.904 11.3057 210.879 11.3433 210.829 11.3647C210.778 11.3826 210.667 11.3916 210.496 11.3916C210.22 11.3916 210.082 11.499 210.082 11.7139L210.13 11.8428L211.521 14.8237C211.593 15.0063 211.665 15.001 211.736 14.8076C211.743 14.7897 211.788 14.6733 211.871 14.4585C212.358 13.2231 212.63 12.5088 212.687 12.3154C212.748 12.1221 212.778 11.9771 212.778 11.8804C212.778 11.7837 212.726 11.6816 212.623 11.5742C212.522 11.4668 212.383 11.4131 212.204 11.4131C212.028 11.4131 211.94 11.3612 211.94 11.2573C211.94 11.1965 211.98 11.166 212.059 11.166H214.094ZM217.779 16C217.75 16 217.736 15.9642 217.736 15.8926V15.8281C217.736 15.7995 217.754 15.7852 217.79 15.7852C217.825 15.7852 217.877 15.7744 217.945 15.7529C218.017 15.7314 218.071 15.7171 218.106 15.71C218.472 15.6276 218.654 15.4199 218.654 15.0869V9.41504C218.654 9.08561 218.593 8.87614 218.472 8.78662C218.35 8.69352 218.13 8.64697 217.811 8.64697H217.569C217.494 8.64697 217.457 8.604 217.457 8.51807C217.457 8.46794 217.48 8.4375 217.526 8.42676H217.564L220.577 8.34619H221.12C221.761 8.38916 222.294 8.62012 222.72 9.03906C223.146 9.45801 223.359 9.9611 223.359 10.5483C223.359 11.132 223.15 11.6619 222.731 12.1382C222.548 12.3494 222.342 12.5213 222.113 12.6538C221.884 12.7827 221.659 12.849 221.437 12.8525L219.825 12.7881H219.782C219.729 12.7881 219.702 12.8132 219.702 12.8633V15.0708C219.702 15.2677 219.755 15.4128 219.863 15.5059C219.97 15.599 220.198 15.6724 220.545 15.7261C220.591 15.7332 220.667 15.7458 220.771 15.7637C220.874 15.778 220.944 15.7852 220.98 15.7852C221.016 15.7852 221.034 15.7995 221.034 15.8281V15.957C221.034 15.9857 221.019 16 220.991 16H217.779ZM220.137 8.62012C220.094 8.62012 220.047 8.62191 219.997 8.62549C219.951 8.62549 219.89 8.62728 219.814 8.63086C219.739 8.63086 219.702 8.65951 219.702 8.7168V12.1812L219.712 12.3423C219.723 12.4175 219.757 12.4569 219.814 12.4604L220.362 12.4927C220.939 12.4927 221.403 12.2993 221.753 11.9126C222.108 11.5259 222.285 11.0407 222.285 10.457C222.285 9.86979 222.113 9.41504 221.77 9.09277C221.429 8.77051 220.975 8.60938 220.405 8.60938C220.355 8.60938 220.309 8.61117 220.266 8.61475C220.223 8.61475 220.18 8.61654 220.137 8.62012ZM224.154 13.5884C224.154 12.883 224.403 12.2778 224.901 11.7729C225.402 11.2645 226.002 11.0103 226.7 11.0103C227.398 11.0103 228.005 11.2573 228.521 11.7515C229.037 12.242 229.294 12.849 229.294 13.5723C229.294 14.2956 229.049 14.9061 228.559 15.4038C228.072 15.8979 227.459 16.145 226.722 16.145C225.984 16.145 225.372 15.8944 224.885 15.3931C224.398 14.8918 224.154 14.2902 224.154 13.5884ZM225.492 14.9688C225.843 15.5596 226.321 15.855 226.926 15.855C227.395 15.855 227.753 15.667 228 15.291C228.251 14.915 228.376 14.4531 228.376 13.9053C228.376 13.3574 228.201 12.7952 227.85 12.2188C227.502 11.6423 227.033 11.354 226.442 11.354C226.009 11.354 225.667 11.542 225.417 11.918C225.169 12.2904 225.046 12.7648 225.046 13.3413C225.046 13.9142 225.194 14.4567 225.492 14.9688ZM232.061 15.7959C232.229 15.8174 232.313 15.8604 232.313 15.9248C232.313 15.9678 232.295 15.9928 232.259 16H229.864C229.828 15.9928 229.81 15.9678 229.81 15.9248C229.81 15.8604 229.894 15.8174 230.062 15.7959C230.449 15.7386 230.643 15.5345 230.643 15.1836V8.48584C230.643 8.33545 230.56 8.23161 230.396 8.17432C230.324 8.14925 230.247 8.12956 230.165 8.11523C230.082 8.09733 230.016 8.08122 229.966 8.06689C229.919 8.05257 229.889 8.04004 229.875 8.0293C229.864 8.01497 229.858 7.98812 229.858 7.94873C229.858 7.90576 229.885 7.86995 229.939 7.84131L231.309 7.19678C231.352 7.17529 231.378 7.16455 231.389 7.16455C231.45 7.16455 231.48 7.20752 231.48 7.29346V15.1836C231.48 15.5345 231.674 15.7386 232.061 15.7959ZM232.882 16C232.847 15.9928 232.829 15.9678 232.829 15.9248C232.829 15.8604 232.913 15.8174 233.081 15.7959C233.468 15.7386 233.661 15.5345 233.661 15.1836V12.3423C233.661 12.1919 233.579 12.0881 233.414 12.0308C233.342 12.0057 233.265 11.986 233.183 11.9717C233.101 11.9538 233.035 11.9377 232.984 11.9233C232.938 11.909 232.907 11.8965 232.893 11.8857C232.882 11.8714 232.877 11.8446 232.877 11.8052C232.877 11.7622 232.904 11.7264 232.958 11.6978L234.327 11.0532C234.37 11.0317 234.397 11.021 234.408 11.021C234.469 11.021 234.499 11.064 234.499 11.1499V15.1836C234.499 15.5345 234.692 15.7386 235.079 15.7959C235.247 15.8174 235.332 15.855 235.332 15.9087C235.332 15.9624 235.314 15.9928 235.278 16H232.882ZM234 9.51172C233.853 9.51172 233.722 9.46517 233.607 9.37207C233.496 9.27897 233.441 9.15007 233.441 8.98535C233.441 8.81706 233.495 8.68457 233.602 8.58789C233.709 8.49121 233.837 8.44287 233.983 8.44287C234.134 8.44287 234.259 8.50016 234.359 8.61475C234.463 8.72933 234.515 8.85286 234.515 8.98535C234.515 9.11784 234.467 9.23958 234.37 9.35059C234.273 9.45801 234.15 9.51172 234 9.51172ZM240.192 11.6655C240.192 11.9162 240.047 12.0415 239.757 12.0415C239.611 12.0415 239.485 12.0003 239.381 11.918C239.281 11.832 239.202 11.7604 239.145 11.7031C239.091 11.6423 239.034 11.5868 238.973 11.5366C238.715 11.3254 238.4 11.3021 238.028 11.4668C237.659 11.6315 237.374 11.9824 237.174 12.5195C237.063 12.8167 237.007 13.1121 237.007 13.4058C237.007 14.036 237.151 14.5516 237.437 14.9526C237.723 15.3501 238.162 15.5488 238.753 15.5488C239.193 15.5488 239.589 15.3519 239.94 14.958C240.047 14.8398 240.112 14.7808 240.133 14.7808C240.155 14.7808 240.178 14.7915 240.203 14.813C240.228 14.8345 240.241 14.8667 240.241 14.9097C240.241 14.9491 240.23 14.9795 240.208 15.001C239.661 15.7637 238.971 16.145 238.141 16.145C237.539 16.145 237.045 15.9212 236.658 15.4736C236.275 15.026 236.083 14.514 236.083 13.9375C236.087 12.8704 236.345 12.1024 236.857 11.6333C237.308 11.2215 237.951 11.0156 238.785 11.0156C239.301 11.0156 239.643 11.0675 239.811 11.1714C239.979 11.2752 240.097 11.4059 240.166 11.5635C240.183 11.5993 240.192 11.6333 240.192 11.6655ZM246.235 11.166C246.274 11.1768 246.294 11.2018 246.294 11.2412C246.294 11.2806 246.29 11.3075 246.283 11.3218C246.276 11.3325 246.258 11.3433 246.229 11.354C246.204 11.3612 246.167 11.3683 246.117 11.3755C246.07 11.3826 245.995 11.397 245.891 11.4185C245.787 11.4364 245.694 11.508 245.612 11.6333C245.529 11.7586 245.442 11.9323 245.349 12.1543L242.824 18.4116L242.475 19.1528C242.386 19.3426 242.198 19.4375 241.911 19.4375C241.786 19.4375 241.686 19.3963 241.61 19.314C241.535 19.2316 241.498 19.1331 241.498 19.0186C241.498 18.9076 241.524 18.8252 241.578 18.7715C241.635 18.7214 241.702 18.6802 241.777 18.6479C241.852 18.6157 241.929 18.5853 242.008 18.5566C242.09 18.5316 242.181 18.4707 242.282 18.374C242.382 18.2809 242.441 18.2111 242.459 18.1646C243.061 16.8182 243.361 16.1146 243.361 16.0537C243.361 15.9928 243.326 15.9176 243.254 15.8281L241.481 12.1274C241.349 11.7658 241.122 11.533 240.799 11.4292C240.774 11.422 240.744 11.4167 240.708 11.4131C240.558 11.3988 240.482 11.354 240.482 11.2788C240.482 11.2036 240.525 11.166 240.611 11.166H243.001C243.03 11.166 243.044 11.1947 243.044 11.252C243.044 11.3057 243.019 11.3433 242.969 11.3647C242.919 11.3826 242.808 11.3916 242.636 11.3916C242.361 11.3916 242.223 11.499 242.223 11.7139L242.271 11.8428L243.662 14.8237C243.734 15.0063 243.805 15.001 243.877 14.8076C243.884 14.7897 243.929 14.6733 244.011 14.4585C244.498 13.2231 244.77 12.5088 244.828 12.3154C244.889 12.1221 244.919 11.9771 244.919 11.8804C244.919 11.7837 244.867 11.6816 244.763 11.5742C244.663 11.4668 244.523 11.4131 244.344 11.4131C244.169 11.4131 244.081 11.3612 244.081 11.2573C244.081 11.1965 244.12 11.166 244.199 11.166H246.235ZM256.886 15.4844C256.914 15.4844 256.929 15.5184 256.929 15.5864C256.929 15.6509 256.918 15.6867 256.896 15.6938C256.41 16.009 255.991 16.1665 255.64 16.1665C255.292 16.1665 254.993 16.0036 254.743 15.6777C254.621 15.5273 254.503 15.3608 254.388 15.1782C254.274 14.9956 254.177 14.856 254.098 14.7593C253.092 15.6831 252.199 16.145 251.418 16.145C250.899 16.145 250.449 15.932 250.07 15.5059C249.694 15.0762 249.506 14.5928 249.506 14.0557C249.506 13.3037 249.916 12.6968 250.736 12.2349C250.983 12.0952 251.25 11.9681 251.536 11.8535C251.128 11.4561 250.875 11.0872 250.779 10.7471C250.743 10.611 250.725 10.4463 250.725 10.2529C250.725 9.86621 250.886 9.55469 251.208 9.31836C251.531 9.07845 251.896 8.9585 252.304 8.9585C252.712 8.9585 253.067 9.07845 253.368 9.31836C253.672 9.55469 253.824 9.868 253.824 10.2583C253.824 10.7202 253.486 11.1571 252.809 11.5688C252.73 11.6154 252.687 11.6423 252.68 11.6494C252.673 11.6566 252.669 11.6727 252.669 11.6978C252.669 11.7192 252.689 11.7497 252.729 11.7891C252.771 11.8249 252.818 11.866 252.868 11.9126C252.922 11.9591 252.999 12.029 253.099 12.1221C253.203 12.2152 253.305 12.3029 253.405 12.3853C253.506 12.4676 253.71 12.7039 254.018 13.0942C254.326 13.4845 254.488 13.6797 254.506 13.6797C254.546 13.6797 254.573 13.6654 254.587 13.6367L255.817 11.7783C255.906 11.6423 255.951 11.5259 255.951 11.4292C255.951 11.3325 255.921 11.2663 255.86 11.2305C255.799 11.1911 255.731 11.1642 255.656 11.1499C255.584 11.132 255.518 11.1159 255.457 11.1016C255.396 11.0837 255.366 11.0443 255.366 10.9834C255.366 10.9189 255.384 10.8867 255.419 10.8867H257.391C257.405 10.9118 257.412 10.9512 257.412 11.0049C257.412 11.055 257.403 11.0872 257.385 11.1016C257.364 11.1159 257.246 11.1338 257.031 11.1553C256.68 11.1875 256.436 11.311 256.3 11.5259L254.716 14.0342L255.387 15.189C255.588 15.5399 255.833 15.7153 256.123 15.7153C256.277 15.7153 256.429 15.6813 256.58 15.6133C256.73 15.5452 256.832 15.5023 256.886 15.4844ZM251.875 15.5059C252.233 15.5059 252.567 15.4217 252.879 15.2534C253.19 15.0815 253.502 14.8649 253.813 14.6035C253.874 14.5462 253.903 14.5015 253.899 14.4692C253.899 14.437 253.899 14.4173 253.899 14.4102C253.896 14.403 253.894 14.394 253.894 14.3833C253.411 13.5526 252.816 12.8543 252.111 12.2886C252.071 12.2563 252.025 12.217 251.971 12.1704C251.917 12.1239 251.866 12.1006 251.815 12.1006C251.751 12.1006 251.647 12.1436 251.504 12.2295C251.2 12.4085 250.951 12.661 250.757 12.9868C250.568 13.3127 250.473 13.6117 250.473 13.8838C250.473 14.3564 250.618 14.745 250.908 15.0493C251.198 15.3537 251.52 15.5059 251.875 15.5059ZM253.11 10.2798C253.11 9.61377 252.829 9.28076 252.267 9.28076C251.905 9.28076 251.67 9.44368 251.563 9.76953C251.531 9.86979 251.515 10.0166 251.515 10.21C251.515 10.3997 251.588 10.6146 251.735 10.8545C251.882 11.0944 252.08 11.2913 252.331 11.4453C252.553 11.4059 252.737 11.2609 252.884 11.0103C253.035 10.7596 253.11 10.5161 253.11 10.2798ZM267.735 15.7959C267.717 15.8245 267.673 15.8317 267.601 15.8174C267.533 15.7995 267.452 15.7905 267.359 15.7905C267.266 15.7905 267.134 15.8102 266.962 15.8496C266.794 15.8854 266.527 15.9427 266.162 16.0215C265.796 16.1038 265.463 16.145 265.163 16.145C264.482 16.145 263.822 15.9857 263.181 15.667C262.543 15.3447 262.033 14.89 261.65 14.3027C261.267 13.7119 261.075 13.028 261.075 12.251C261.075 11.474 261.267 10.7703 261.65 10.1401C262.208 9.21631 263.05 8.61475 264.174 8.33545C264.532 8.24593 264.89 8.20117 265.249 8.20117C265.739 8.20117 266.321 8.28353 266.994 8.44824C267.198 8.49837 267.37 8.55029 267.51 8.604C267.653 8.65771 267.741 8.68457 267.773 8.68457L267.934 8.6416H268.101C268.144 8.6416 268.165 8.67204 268.165 8.73291V10.4033C268.165 10.4391 268.133 10.457 268.068 10.457C268.004 10.457 267.966 10.4499 267.956 10.4355C267.945 10.4176 267.934 10.3979 267.923 10.3765C267.913 10.3514 267.9 10.3263 267.886 10.3013C267.875 10.2762 267.862 10.2529 267.848 10.2314C267.837 10.21 267.83 10.1938 267.827 10.1831C267.29 9.10531 266.475 8.56641 265.383 8.56641C264.398 8.56641 263.628 8.87972 263.073 9.50635C262.518 10.133 262.241 10.9637 262.241 11.9985C262.241 13.0298 262.545 13.916 263.154 14.6572C263.766 15.3984 264.597 15.769 265.646 15.769C266.219 15.769 266.74 15.599 267.209 15.2588C267.682 14.9186 268.052 14.5015 268.321 14.0073C268.328 13.9858 268.349 13.9751 268.385 13.9751H268.455C268.491 13.9751 268.509 13.9966 268.509 14.0396C268.509 14.0825 268.498 14.1237 268.477 14.1631L267.735 15.7959ZM269.325 13.5884C269.325 12.883 269.574 12.2778 270.072 11.7729C270.573 11.2645 271.173 11.0103 271.871 11.0103C272.569 11.0103 273.176 11.2573 273.692 11.7515C274.208 12.242 274.465 12.849 274.465 13.5723C274.465 14.2956 274.22 14.9061 273.729 15.4038C273.243 15.8979 272.63 16.145 271.893 16.145C271.155 16.145 270.543 15.8944 270.056 15.3931C269.569 14.8918 269.325 14.2902 269.325 13.5884ZM270.663 14.9688C271.014 15.5596 271.492 15.855 272.097 15.855C272.566 15.855 272.924 15.667 273.171 15.291C273.422 14.915 273.547 14.4531 273.547 13.9053C273.547 13.3574 273.371 12.7952 273.021 12.2188C272.673 11.6423 272.204 11.354 271.613 11.354C271.18 11.354 270.838 11.542 270.587 11.918C270.34 12.2904 270.217 12.7648 270.217 13.3413C270.217 13.9142 270.365 14.4567 270.663 14.9688ZM275.276 13.5884C275.276 12.883 275.525 12.2778 276.023 11.7729C276.524 11.2645 277.124 11.0103 277.822 11.0103C278.521 11.0103 279.127 11.2573 279.643 11.7515C280.159 12.242 280.417 12.849 280.417 13.5723C280.417 14.2956 280.171 14.9061 279.681 15.4038C279.194 15.8979 278.581 16.145 277.844 16.145C277.106 16.145 276.494 15.8944 276.007 15.3931C275.52 14.8918 275.276 14.2902 275.276 13.5884ZM276.614 14.9688C276.965 15.5596 277.443 15.855 278.048 15.855C278.517 15.855 278.875 15.667 279.122 15.291C279.373 14.915 279.498 14.4531 279.498 13.9053C279.498 13.3574 279.323 12.7952 278.972 12.2188C278.624 11.6423 278.155 11.354 277.564 11.354C277.131 11.354 276.789 11.542 276.539 11.918C276.292 12.2904 276.168 12.7648 276.168 13.3413C276.168 13.9142 276.317 14.4567 276.614 14.9688ZM282.796 13.4272C282.753 13.4272 282.731 13.515 282.731 13.6904V15.1836C282.731 15.5345 282.925 15.7386 283.312 15.7959C283.48 15.8174 283.564 15.8568 283.564 15.9141C283.564 15.9714 283.546 16 283.51 16H281.115C281.079 15.9928 281.061 15.9678 281.061 15.9248C281.061 15.8604 281.145 15.8174 281.313 15.7959C281.7 15.7386 281.894 15.5345 281.894 15.1836V8.48584C281.894 8.33545 281.811 8.23161 281.646 8.17432C281.575 8.14925 281.498 8.12956 281.416 8.11523C281.333 8.09733 281.267 8.08122 281.217 8.06689C281.17 8.05257 281.14 8.04004 281.125 8.0293C281.115 8.01497 281.109 7.98812 281.109 7.94873C281.109 7.90576 281.136 7.86995 281.19 7.84131L282.56 7.19678C282.603 7.17529 282.629 7.16455 282.64 7.16455C282.701 7.16455 282.731 7.20752 282.731 7.29346V12.6538C282.76 12.7576 282.798 12.8185 282.844 12.8364C282.891 12.8543 282.941 12.8633 282.995 12.8633C283.098 12.8633 283.269 12.7827 283.505 12.6216C283.745 12.4569 283.961 12.2743 284.155 12.0737C284.348 11.8696 284.445 11.73 284.445 11.6548C284.445 11.576 284.411 11.5277 284.343 11.5098C284.275 11.4883 284.198 11.474 284.112 11.4668C284.029 11.4561 283.954 11.4417 283.886 11.4238C283.818 11.4023 283.784 11.354 283.784 11.2788C283.784 11.2036 283.858 11.166 284.004 11.166H286.051C286.176 11.166 286.239 11.2072 286.239 11.2896C286.239 11.3325 286.198 11.3665 286.115 11.3916C286.033 11.4167 285.874 11.4561 285.637 11.5098C285.401 11.5599 285.213 11.6405 285.073 11.7515L283.532 12.9546C283.532 13.0011 283.566 13.0584 283.634 13.1265L285.841 15.4521C285.985 15.599 286.131 15.6956 286.282 15.7422C286.432 15.7852 286.532 15.8138 286.583 15.8281C286.633 15.8424 286.658 15.8675 286.658 15.9033C286.658 15.9678 286.629 16 286.572 16H284.214C284.178 16 284.16 15.9785 284.16 15.9355C284.16 15.8711 284.205 15.8299 284.294 15.812C284.563 15.7619 284.697 15.6706 284.697 15.5381C284.697 15.4987 284.67 15.4468 284.617 15.3823C284.563 15.3179 284.513 15.2552 284.466 15.1943L282.807 13.438C282.807 13.4344 282.805 13.4308 282.801 13.4272H282.796ZM287.087 16C287.052 15.9928 287.034 15.9678 287.034 15.9248C287.034 15.8604 287.118 15.8174 287.286 15.7959C287.673 15.7386 287.866 15.5345 287.866 15.1836V12.3423C287.866 12.1919 287.784 12.0881 287.619 12.0308C287.548 12.0057 287.471 11.986 287.388 11.9717C287.306 11.9538 287.24 11.9377 287.189 11.9233C287.143 11.909 287.112 11.8965 287.098 11.8857C287.087 11.8714 287.082 11.8446 287.082 11.8052C287.082 11.7622 287.109 11.7264 287.163 11.6978L288.532 11.0532C288.575 11.0317 288.602 11.021 288.613 11.021C288.674 11.021 288.704 11.064 288.704 11.1499V15.1836C288.704 15.5345 288.897 15.7386 289.284 15.7959C289.452 15.8174 289.537 15.855 289.537 15.9087C289.537 15.9624 289.519 15.9928 289.483 16H287.087ZM288.205 9.51172C288.058 9.51172 287.927 9.46517 287.812 9.37207C287.701 9.27897 287.646 9.15007 287.646 8.98535C287.646 8.81706 287.7 8.68457 287.807 8.58789C287.915 8.49121 288.042 8.44287 288.188 8.44287C288.339 8.44287 288.464 8.50016 288.564 8.61475C288.668 8.72933 288.72 8.85286 288.72 8.98535C288.72 9.11784 288.672 9.23958 288.575 9.35059C288.479 9.45801 288.355 9.51172 288.205 9.51172ZM291.046 13.1694C290.985 13.1694 290.955 13.3001 290.955 13.5615C290.955 14.1165 291.119 14.582 291.449 14.958C291.778 15.334 292.186 15.522 292.673 15.522C293.164 15.522 293.635 15.3107 294.086 14.8882C294.093 14.881 294.102 14.8774 294.113 14.8774H294.14C294.161 14.8774 294.181 14.8953 294.199 14.9312C294.22 14.9634 294.24 14.9849 294.258 14.9956C293.842 15.5005 293.354 15.8496 292.792 16.043C292.598 16.111 292.38 16.145 292.136 16.145C291.893 16.145 291.646 16.0788 291.395 15.9463C291.144 15.8102 290.93 15.633 290.75 15.4146C290.371 14.9598 290.181 14.394 290.181 13.7173C290.181 13.0369 290.387 12.4175 290.799 11.8589C291.214 11.3003 291.784 11.021 292.507 11.021C293.026 11.021 293.45 11.2537 293.78 11.7192C294.109 12.1812 294.274 12.5876 294.274 12.9385C294.274 13.0924 294.236 13.1694 294.161 13.1694H291.046ZM291.105 12.6538C291.105 12.7218 291.137 12.7559 291.202 12.7559H293.227C293.32 12.7559 293.366 12.7004 293.366 12.5894C293.366 12.3315 293.25 12.0684 293.017 11.7998C292.788 11.5277 292.535 11.3916 292.26 11.3916C291.991 11.3916 291.746 11.5133 291.524 11.7568C291.306 12.0003 291.166 12.2778 291.105 12.5894V12.6538ZM297.781 12.3262C297.781 12.4049 297.751 12.4443 297.69 12.4443C297.633 12.4443 297.588 12.4014 297.556 12.3154C297.47 12.0791 297.341 11.8696 297.169 11.687C297.001 11.5044 296.791 11.4131 296.541 11.4131C296.211 11.4131 295.989 11.5778 295.875 11.9072C295.839 12.0182 295.821 12.1328 295.821 12.251C295.821 12.3691 295.896 12.5016 296.046 12.6484C296.197 12.7917 296.444 12.9635 296.788 13.1641C297.131 13.3646 297.382 13.5347 297.54 13.6743C297.898 13.993 298.077 14.3618 298.077 14.7808C298.077 15.1997 297.923 15.5327 297.615 15.7798C297.307 16.0233 296.949 16.145 296.541 16.145C296.322 16.145 296.123 16.1146 295.944 16.0537C295.769 15.9964 295.667 15.9678 295.638 15.9678C295.613 15.9678 295.57 15.9964 295.509 16.0537C295.452 16.1146 295.405 16.145 295.37 16.145H295.278C295.257 16.145 295.23 15.9517 295.198 15.5649C295.166 15.1782 295.149 14.9491 295.149 14.8774C295.149 14.8058 295.155 14.7664 295.166 14.7593C295.18 14.7521 295.201 14.7485 295.23 14.7485C295.259 14.7485 295.282 14.7575 295.3 14.7754C295.321 14.7933 295.339 14.8166 295.354 14.8452C295.368 14.8703 295.379 14.8971 295.386 14.9258C295.396 14.9544 295.42 15.0081 295.456 15.0869C295.699 15.6061 296.075 15.8657 296.583 15.8657C296.809 15.8657 296.99 15.7834 297.126 15.6187C297.262 15.4504 297.33 15.2642 297.33 15.0601C297.33 14.856 297.276 14.6841 297.169 14.5444C297.062 14.4048 296.927 14.2777 296.766 14.1631C296.609 14.0485 296.437 13.9375 296.25 13.8301C295.527 13.4076 295.166 12.9403 295.166 12.4282C295.166 12.0451 295.33 11.7157 295.66 11.4399C295.989 11.1606 296.327 11.021 296.675 11.021C297.022 11.021 297.278 11.0586 297.443 11.1338C297.611 11.209 297.71 11.2734 297.738 11.3271C297.767 11.3773 297.781 11.5456 297.781 11.832V12.3262Z" fill="black"/>
</svg>
